<svg xmlns="http://www.w3.org/2000/svg" width="18" height="18" viewBox="0 0 18 18" fill="none">
  <g clip-path="url(#clip0_558_1248)">
    <path fill-rule="evenodd" clip-rule="evenodd" d="M9.6 1.2216V0H8.4V1.2216C6.54483 1.36457 4.80188 2.16601 3.48575 3.48126C2.16962 4.79651 1.36701 6.53893 1.2228 8.394H0V9.594H1.2228C1.36647 11.4503 2.1686 13.1942 3.48459 14.5113C4.80057 15.8284 6.54381 16.632 8.4 16.7772V18H9.6V16.7772C11.4562 16.632 13.1994 15.8284 14.5154 14.5113C15.8314 13.1942 16.6335 11.4503 16.7772 9.594H18V8.394H16.7772C16.633 6.53893 15.8304 4.79651 14.5143 3.48126C13.1981 2.16601 11.4552 1.36457 9.6 1.2216ZM9.6 3.6V8.394H14.4V9.594H9.6V14.4H8.4V9.594H3.6V8.394H8.4V3.6H9.6Z" fill="black"/>
  </g>
  <defs>
    <clipPath id="clip0_558_1248">
      <rect width="18" height="18" fill="white"/>
    </clipPath>
  </defs>
</svg>
