<svg width="24" height="24" viewBox="0 0 24 24" fill="none" xmlns="http://www.w3.org/2000/svg">
<g id="fluent:people-edit-24-regular">
<path id="Vector" d="M8 5.5C7.33696 5.5 6.70107 5.76339 6.23223 6.23223C5.76339 6.70107 5.5 7.33696 5.5 8C5.5 8.66304 5.76339 9.29893 6.23223 9.76777C6.70107 10.2366 7.33696 10.5 8 10.5C8.66304 10.5 9.29893 10.2366 9.76777 9.76777C10.2366 9.29893 10.5 8.66304 10.5 8C10.5 7.33696 10.2366 6.70107 9.76777 6.23223C9.29893 5.76339 8.66304 5.5 8 5.5ZM4 8C4 6.93913 4.42143 5.92172 5.17157 5.17157C5.92172 4.42143 6.93913 4 8 4C9.06087 4 10.0783 4.42143 10.8284 5.17157C11.5786 5.92172 12 6.93913 12 8C12 9.06087 11.5786 10.0783 10.8284 10.8284C10.0783 11.5786 9.06087 12 8 12C6.93913 12 5.92172 11.5786 5.17157 10.8284C4.42143 10.0783 4 9.06087 4 8ZM17 7.5C16.6022 7.5 16.2206 7.65803 15.9393 7.93934C15.658 8.22064 15.5 8.60217 15.5 9C15.5 9.39782 15.658 9.77936 15.9393 10.0607C16.2206 10.342 16.6022 10.5 17 10.5C17.3978 10.5 17.7794 10.342 18.0607 10.0607C18.342 9.77936 18.5 9.39782 18.5 9C18.5 8.60217 18.342 8.22064 18.0607 7.93934C17.7794 7.65803 17.3978 7.5 17 7.5ZM14 9C14 8.20435 14.3161 7.44129 14.8787 6.87868C15.4413 6.31607 16.2044 6 17 6C17.7956 6 18.5587 6.31607 19.1213 6.87868C19.6839 7.44129 20 8.20435 20 9C20 9.79565 19.6839 10.5587 19.1213 11.1213C18.5587 11.6839 17.7956 12 17 12C16.2044 12 15.4413 11.6839 14.8787 11.1213C14.3161 10.5587 14 9.79565 14 9ZM2 16.25C2 15.6533 2.23705 15.081 2.65901 14.659C3.08097 14.2371 3.65326 14 4.25 14H11.75C12.3467 14 12.919 14.2371 13.341 14.659C13.7629 15.081 14 15.6533 14 16.25V16.356L12.491 17.865C12.0185 18.3372 11.6832 18.929 11.521 19.577L11.327 20.356C10.485 20.75 9.397 21 8 21C5.172 21 3.61 19.975 2.792 18.805C2.36404 18.1907 2.09658 17.4791 2.014 16.735C2.00699 16.6665 2.00232 16.5978 2 16.529V16.503V16.25ZM3.5 16.495V16.507L3.507 16.587C3.514 16.661 3.53 16.775 3.562 16.916C3.628 17.197 3.76 17.572 4.021 17.945C4.514 18.65 5.578 19.5 8 19.5C10.422 19.5 11.486 18.65 11.98 17.945C12.2601 17.5414 12.4363 17.075 12.493 16.587C12.4957 16.5604 12.4977 16.5337 12.499 16.507L12.5 16.495V16.25C12.5 16.0511 12.421 15.8603 12.2803 15.7197C12.1397 15.579 11.9489 15.5 11.75 15.5H4.25C4.05109 15.5 3.86032 15.579 3.71967 15.7197C3.57902 15.8603 3.5 16.0511 3.5 16.25V16.495ZM19.1 12.669L13.197 18.572C12.8531 18.9161 12.6091 19.3471 12.491 19.819L12.033 21.65C11.9875 21.8322 11.9899 22.023 12.04 22.204C12.0902 22.385 12.1864 22.5498 12.3192 22.6826C12.452 22.8153 12.617 22.9114 12.798 22.9614C12.979 23.0114 13.1699 23.0137 13.352 22.968L15.182 22.511C15.6544 22.3929 16.0858 22.1485 16.43 21.804L22.332 15.902C22.7441 15.4701 22.9709 14.8941 22.9639 14.2971C22.9569 13.7002 22.7166 13.1297 22.2945 12.7075C21.8723 12.2854 21.3018 12.0451 20.7049 12.0381C20.1079 12.0311 19.5319 12.2579 19.1 12.67" fill="black"/>
</g>
</svg>
