<svg width="27" height="27" viewBox="0 0 27 27" fill="none" xmlns="http://www.w3.org/2000/svg">
<g id="solar:pin-list-bold">
<path id="Vector" fill-rule="evenodd" clip-rule="evenodd" d="M24.7501 9.42409C24.748 9.64409 24.6587 9.85427 24.5017 10.0085C24.3448 10.1627 24.1331 10.2483 23.9131 10.2465H18.3308C18.2218 10.2475 18.1136 10.2271 18.0125 10.1863C17.9113 10.1455 17.8192 10.0852 17.7414 10.0089C17.6636 9.9325 17.6016 9.84155 17.5589 9.74122C17.5162 9.64088 17.4937 9.53312 17.4927 9.42409C17.4927 8.96959 17.8684 8.60059 18.3308 8.60059H23.9131C24.3743 8.60059 24.7501 8.96959 24.7501 9.42409ZM24.7501 14.3617C24.748 14.5817 24.6587 14.7919 24.5017 14.9461C24.3448 15.1003 24.1331 15.1859 23.9131 15.1841H19.4468C19.2268 15.1859 19.0151 15.1003 18.8581 14.9461C18.7012 14.7919 18.6119 14.5817 18.6098 14.3617C18.6098 13.9072 18.9844 13.5382 19.4468 13.5382H23.9131C24.3743 13.5382 24.7501 13.9072 24.7501 14.3617Z" fill="black"/>
<path id="Vector_2" d="M14.1605 9.26775L14.57 9.66938C16.2777 11.3479 17.1327 12.1883 17.1316 13.0972C17.1316 13.3954 17.0697 13.689 16.9505 13.9624C16.5849 14.7983 15.4621 15.237 13.2177 16.1156L13.0546 16.1786C12.419 16.4272 12.1006 16.5521 11.8441 16.7524C11.6502 16.9035 11.4829 17.0861 11.3491 17.2924C11.1725 17.5624 11.0791 17.8875 10.8912 18.5344C10.601 19.539 10.457 20.0419 10.1476 20.2635C9.91647 20.4295 9.63125 20.5022 9.34886 20.4671C8.96861 20.4221 8.59286 20.052 7.84136 19.314L6.68711 18.1778L3.67999 21.1342C3.52156 21.2888 3.309 21.3753 3.08768 21.3753C2.86635 21.3753 2.65379 21.2888 2.49536 21.1342C2.4177 21.0585 2.35599 20.9679 2.31385 20.868C2.27171 20.768 2.25 20.6606 2.25 20.5521C2.25 20.4436 2.27171 20.3362 2.31385 20.2362C2.35599 20.1362 2.4177 20.0456 2.49536 19.9699L5.49124 17.0033L4.34711 15.8783C3.59674 15.1414 3.22099 14.7724 3.17374 14.3978C3.13862 14.1194 3.21282 13.8383 3.38074 13.6136C3.60799 13.3099 4.11874 13.167 5.14024 12.8824C5.79949 12.699 6.12911 12.6068 6.40474 12.4335C6.61367 12.3029 6.79924 12.1383 6.95374 11.9464C7.15736 11.6944 7.28449 11.3816 7.53761 10.7561L7.60174 10.5964C8.49499 8.39137 8.94161 7.28775 9.79324 6.92887C10.0711 6.81075 10.3704 6.75 10.6719 6.75C11.5989 6.75 12.4527 7.58812 14.1605 9.26775Z" fill="black"/>
<path id="Vector_3" fill-rule="evenodd" clip-rule="evenodd" d="M24.7498 19.2993C24.7478 19.5193 24.6584 19.7295 24.5015 19.8837C24.3446 20.0379 24.1328 20.1235 23.9128 20.1217H13.8643C13.6443 20.1235 13.4326 20.0379 13.2757 19.8837C13.1187 19.7295 13.0294 19.5193 13.0273 19.2993C13.0273 18.8448 13.402 18.4758 13.8643 18.4758H23.9128C24.3741 18.4758 24.7498 18.8448 24.7498 19.2993Z" fill="black"/>
</g>
</svg>
