<svg width="25" height="39" viewBox="0 0 25 39" fill="none" xmlns="http://www.w3.org/2000/svg">
<path d="M9.39039 36.08H15.5604V38.66H9.39039V36.08ZM14.7504 36.72H10.2104V38.03H14.7504V36.72ZM8.82039 30.48H16.0904V31.13H8.82039V30.48ZM12.4804 31.49C14.3404 31.49 15.4004 31.93 15.4004 32.77C15.4004 33.61 14.3404 34.05 12.4804 34.05C10.6104 34.05 9.56039 33.61 9.56039 32.77C9.56039 31.93 10.6104 31.49 12.4804 31.49ZM12.4804 32.07C11.1704 32.07 10.4404 32.32 10.4404 32.77C10.4404 33.22 11.1704 33.47 12.4804 33.47C13.7804 33.47 14.5104 33.22 14.5104 32.77C14.5104 32.32 13.7804 32.07 12.4804 32.07ZM12.0704 29.61H12.8904V30.9H12.0704V29.61ZM8.39039 34.74H16.5604V35.39H8.39039V34.74ZM12.0704 33.85H12.8904V35.1H12.0704V33.85Z" fill="#717171"/>
</svg>
