<svg width="37" height="43" viewBox="0 0 37 43" fill="none" xmlns="http://www.w3.org/2000/svg">
<path d="M0.715313 37.92H1.44531C3.39531 37.92 4.46531 37.88 5.73531 37.66L5.82531 38.32C4.51531 38.55 3.41531 38.58 1.44531 38.58H0.715313V37.92ZM0.715313 34.29H5.01531V34.96H1.53531V38.26H0.715313V34.29ZM1.26531 36.07H4.76531V36.74H1.26531V36.07ZM6.76531 33.75H7.60531V39.13H6.76531V33.75ZM1.76531 39.58H7.60531V42.66H1.76531V39.58ZM6.78531 40.25H2.57531V41.99H6.78531V40.25ZM11.4545 38.29H12.2845V40.3H11.4545V38.29ZM15.4645 33.74H16.2945V40.62H15.4645V33.74ZM10.1245 41.9H16.5145V42.58H10.1245V41.9ZM10.1245 39.95H10.9545V42.09H10.1245V39.95ZM8.95453 38.6L8.84453 37.92C10.5145 37.92 12.7545 37.9 14.6745 37.65L14.7345 38.26C12.7845 38.57 10.5945 38.6 8.95453 38.6ZM13.6245 39.08H15.6745V39.69H13.6245V39.08ZM11.7845 34.11C13.1045 34.11 14.0045 34.73 14.0045 35.68C14.0045 36.64 13.1045 37.26 11.7845 37.26C10.4545 37.26 9.55453 36.64 9.55453 35.68C9.55453 34.73 10.4545 34.11 11.7845 34.11ZM11.7845 34.73C10.9345 34.73 10.3445 35.1 10.3445 35.68C10.3445 36.26 10.9345 36.63 11.7845 36.63C12.6245 36.63 13.2145 36.26 13.2145 35.68C13.2145 35.1 12.6245 34.73 11.7845 34.73ZM19.9063 40.94H28.0963V41.63H19.9063V40.94ZM23.5663 38.6H24.3963V41.13H23.5663V38.6ZM20.8563 34.49H27.0963V38.75H20.8563V34.49ZM26.2963 35.16H21.6663V38.08H26.2963V35.16ZM31.0055 34.52H31.6955V35.21C31.6955 36.8 30.6555 38.14 29.1355 38.66L28.7155 38C30.0755 37.56 31.0055 36.44 31.0055 35.21V34.52ZM31.1655 34.52H31.8555V35.21C31.8555 36.38 32.8055 37.43 34.1355 37.85L33.7255 38.5C32.2255 38.01 31.1655 36.74 31.1655 35.21V34.52ZM28.9455 34.33H33.8955V35H28.9455V34.33ZM35.1755 33.74H36.0155V38.63H35.1755V33.74ZM30.1855 39.08H31.0055V40.15H35.1955V39.08H36.0155V42.66H30.1855V39.08ZM31.0055 40.82V41.98H35.1955V40.82H31.0055Z" fill="black"/>
<path d="M18.0097 10C18.0097 11.492 16.7569 12.75 15.1508 12.75C13.5448 12.75 12.292 11.492 12.292 10C12.292 8.50799 13.5448 7.25 15.1508 7.25C16.7569 7.25 18.0097 8.50799 18.0097 10Z" stroke="black" stroke-width="2" stroke-linecap="round"/>
<path d="M20.2998 10.8233C20.5888 10.3368 21.0701 9.97382 21.6447 9.82421C22.2197 9.67447 22.8317 9.7536 23.3435 10.0408C23.8545 10.3275 24.2189 10.7945 24.3671 11.332C24.5151 11.8687 24.4384 12.4414 24.1501 12.9267C23.8611 13.4132 23.3798 13.7762 22.8053 13.9258C22.2302 14.0755 21.6183 13.9964 21.1064 13.7092C20.5955 13.4225 20.2311 12.9555 20.0829 12.418C19.9349 11.8813 20.0115 11.3086 20.2998 10.8233L20.2998 10.8233Z" stroke="black" stroke-width="2"/>
<path d="M22.141 22.1317L21.1505 22.2698L22.141 22.1317ZM21.225 22.125H9.07594V24.125H21.225V22.125ZM9.15041 22.2698C9.28205 21.3257 9.63035 19.8915 10.514 18.714C11.3599 17.587 12.7434 16.625 15.1505 16.625V14.625C12.0973 14.625 10.1277 15.8969 8.91443 17.5135C7.73903 19.0797 7.32222 20.8988 7.16957 21.9936L9.15041 22.2698ZM15.1505 16.625C17.5575 16.625 18.9411 17.587 19.7869 18.714C20.6706 19.8915 21.0189 21.3257 21.1505 22.2698L23.1314 21.9936C22.9787 20.8988 22.5619 19.0797 21.3865 17.5135C20.1732 15.8969 18.2037 14.625 15.1505 14.625V16.625ZM9.07594 22.125C9.07069 22.125 9.08752 22.1238 9.1102 22.1478C9.12185 22.1602 9.13461 22.1792 9.143 22.2046C9.15183 22.2314 9.15243 22.2553 9.15041 22.2698L7.16957 21.9936C6.9986 23.2198 7.99772 24.125 9.07594 24.125V22.125ZM21.225 24.125C22.3032 24.125 23.3024 23.2198 23.1314 21.9936L21.1505 22.2698C21.1485 22.2553 21.1491 22.2314 21.158 22.2046C21.1664 22.1792 21.1791 22.1602 21.1908 22.1478C21.2134 22.1238 21.2303 22.125 21.225 22.125V24.125Z" fill="black"/>
<path d="M26.2623 23.125V24.125V23.125ZM27.1743 22.0373L26.2004 22.2643L26.2004 22.2643L27.1743 22.0373ZM20.0391 17.476L19.5142 16.6248L18.4463 17.2834L19.3264 18.1775L20.0391 17.476ZM22.1412 22.1317L21.1508 22.2698L22.1412 22.1317ZM26.2623 22.125L21.2253 22.125L21.2253 24.125L26.2623 24.125V22.125ZM26.2004 22.2643C26.1977 22.2529 26.1961 22.2305 26.2029 22.2038C26.2092 22.1788 26.2205 22.16 26.2308 22.1479C26.2512 22.1241 26.2679 22.125 26.2623 22.125V24.125C27.4202 24.125 28.4463 23.0893 28.1482 21.8103L26.2004 22.2643ZM22.2254 17.875C23.4755 17.875 24.3353 18.4892 24.9731 19.3708C25.632 20.2816 26.0045 21.4238 26.2004 22.2643L28.1482 21.8103C27.9267 20.8603 27.4781 19.4213 26.5935 18.1986C25.6879 16.9467 24.2819 15.875 22.2254 15.875V17.875ZM20.564 18.3271C21.0106 18.0517 21.5504 17.875 22.2254 17.875V15.875C21.1742 15.875 20.2717 16.1576 19.5142 16.6248L20.564 18.3271ZM19.3264 18.1775C20.5498 19.4203 20.9965 21.1628 21.1508 22.2698L23.1317 21.9936C22.956 20.7341 22.425 18.4743 20.7517 16.7744L19.3264 18.1775ZM21.1508 22.2698C21.1488 22.2553 21.1494 22.2314 21.1582 22.2046C21.1666 22.1792 21.1794 22.1602 21.191 22.1478C21.2137 22.1238 21.2305 22.125 21.2253 22.125V24.125C22.3035 24.125 23.3026 23.2198 23.1317 21.9936L21.1508 22.2698Z" fill="black"/>
</svg>
