<svg width="35" height="39" viewBox="0 0 35 39" fill="none" xmlns="http://www.w3.org/2000/svg">
<path d="M17.5 4C18.5609 4 19.5783 4.42143 20.3284 5.17157C21.0786 5.92172 21.5 6.93913 21.5 8C21.5 9.06087 21.0786 10.0783 20.3284 10.8284C19.5783 11.5786 18.5609 12 17.5 12C16.4391 12 15.4217 11.5786 14.6716 10.8284C13.9214 10.0783 13.5 9.06087 13.5 8C13.5 6.93913 13.9214 5.92172 14.6716 5.17157C15.4217 4.42143 16.4391 4 17.5 4ZM17.5 6C16.9696 6 16.4609 6.21071 16.0858 6.58579C15.7107 6.96086 15.5 7.46957 15.5 8C15.5 8.53043 15.7107 9.03914 16.0858 9.41421C16.4609 9.78929 16.9696 10 17.5 10C18.0304 10 18.5391 9.78929 18.9142 9.41421C19.2893 9.03914 19.5 8.53043 19.5 8C19.5 7.46957 19.2893 6.96086 18.9142 6.58579C18.5391 6.21071 18.0304 6 17.5 6ZM17.5 13C20.17 13 25.5 14.33 25.5 17V20H9.5V17C9.5 14.33 14.83 13 17.5 13ZM17.5 14.9C14.53 14.9 11.4 16.36 11.4 17V18.1H23.6V17C23.6 16.36 20.47 14.9 17.5 14.9Z" fill="#717171"/>
<path d="M0.701563 30.64H4.85156V36.49H0.701563V30.64ZM4.04156 31.31H1.51156V35.82H4.04156V31.31ZM6.46156 29.74H7.30156V38.78H6.46156V29.74ZM7.10156 33.35H8.78156V34.05H7.10156V33.35ZM15.6108 29.73H16.4408V38.79H15.6108V29.73ZM11.6708 30.43C13.0108 30.43 13.9708 31.66 13.9708 33.58C13.9708 35.51 13.0108 36.74 11.6708 36.74C10.3408 36.74 9.38078 35.51 9.38078 33.58C9.38078 31.66 10.3408 30.43 11.6708 30.43ZM11.6708 31.18C10.7908 31.18 10.1708 32.12 10.1708 33.58C10.1708 35.05 10.7908 36.01 11.6708 36.01C12.5608 36.01 13.1708 35.05 13.1708 33.58C13.1708 32.12 12.5608 31.18 11.6708 31.18ZM17.74 34.27H25.91V34.94H17.74V34.27ZM21.42 33.01H22.24V34.49H21.42V33.01ZM21.82 35.61C23.76 35.61 24.91 36.18 24.91 37.19C24.91 38.2 23.76 38.76 21.82 38.76C19.89 38.76 18.73 38.2 18.73 37.19C18.73 36.18 19.89 35.61 21.82 35.61ZM21.82 36.25C20.4 36.25 19.57 36.59 19.57 37.19C19.57 37.79 20.4 38.13 21.82 38.13C23.24 38.13 24.07 37.79 24.07 37.19C24.07 36.59 23.24 36.25 21.82 36.25ZM18.83 29.97H19.65V30.97H24.02V29.97H24.85V33.31H18.83V29.97ZM19.65 31.62V32.64H24.02V31.62H19.65ZM28.6592 30.52H29.3392V32.14C29.3392 34.14 28.2592 36.09 26.8292 36.85L26.3192 36.19C27.6292 35.53 28.6592 33.79 28.6592 32.14V30.52ZM28.8092 30.52H29.4792V32.14C29.4792 33.73 30.4892 35.38 31.7692 36.02L31.2592 36.68C29.8592 35.93 28.8092 34.08 28.8092 32.14V30.52ZM32.5592 29.74H33.3992V38.78H32.5592V29.74ZM33.1992 33.4H34.8792V34.1H33.1992V33.4Z" fill="#717171"/>
</svg>
