<svg width="46" height="39" viewBox="0 0 46 39" fill="none" xmlns="http://www.w3.org/2000/svg">
<path d="M31.5 2H15.5C14.4 2 13.5 2.9 13.5 4V16V16.5C13.5 17.3284 14.1716 18 15 18H22L24 21L26 18H31.5C32.6 18 33.5 17.1 33.5 16V4C33.5 2.9 32.6 2 31.5 2ZM31.5 16H25.2L24 18L23 16H15.5V4H31.5V16Z" fill="#717171"/>
<path d="M1.89035 33.96H8.10035V34.64H1.89035V33.96ZM0.860352 36.95H9.05035V37.65H0.860352V36.95ZM4.52035 34.25H5.35035V37.23H4.52035V34.25ZM1.89035 30.46H8.01035V31.14H2.72035V34.26H1.89035V30.46ZM11.8396 34.3H12.6696V36.46H11.8396V34.3ZM12.2496 30.32C13.6396 30.32 14.6396 31.19 14.6396 32.45C14.6396 33.71 13.6396 34.58 12.2496 34.58C10.8596 34.58 9.85957 33.71 9.85957 32.45C9.85957 31.19 10.8596 30.32 12.2496 30.32ZM12.2496 31.03C11.3296 31.03 10.6696 31.61 10.6696 32.45C10.6696 33.29 11.3296 33.87 12.2496 33.87C13.1696 33.87 13.8296 33.29 13.8296 32.45C13.8296 31.61 13.1696 31.03 12.2496 31.03ZM15.6696 29.74H16.4996V38.78H15.6696V29.74ZM16.2596 33.46H17.9296V34.16H16.2596V33.46ZM9.56957 36.83L9.44957 36.14C11.0796 36.13 13.2596 36.12 15.0996 35.87L15.1696 36.49C13.2596 36.81 11.1496 36.83 9.56957 36.83ZM21.8788 30.63H22.5988V31.01C22.5988 32.63 20.8788 33.82 19.0588 34.13L18.7388 33.47C20.3288 33.24 21.8788 32.2 21.8788 31.01V30.63ZM22.0888 30.63H22.7988V31.01C22.7988 32.2 24.3588 33.24 25.9388 33.47L25.6288 34.13C23.7988 33.82 22.0888 32.63 22.0888 31.01V30.63ZM21.9088 35.33H22.7288V38.78H21.9088V35.33ZM18.2588 34.89H26.4288V35.57H18.2588V34.89ZM19.0188 30.3H25.6388V30.97H19.0188V30.3ZM30.518 32.97H32.248V33.66H30.518V32.97ZM28.828 30.59H29.478V32.31C29.478 34.2 28.688 36.03 27.368 36.84L26.848 36.21C28.088 35.48 28.828 33.86 28.828 32.31V30.59ZM28.988 30.59H29.628V32.28C29.628 33.73 30.308 35.27 31.498 35.99L31.018 36.64C29.718 35.84 28.988 34.04 28.988 32.28V30.59ZM33.838 29.74H34.638V38.78H33.838V29.74ZM32.008 29.93H32.788V38.33H32.008V29.93ZM37.6572 34.39H38.4772V37.1H37.6572V34.39ZM40.9972 34.39H41.8272V37.1H40.9972V34.39ZM35.6572 36.94H43.8472V37.63H35.6572V36.94ZM39.7372 30.31C41.6472 30.31 43.0172 31.22 43.0172 32.64C43.0172 34.05 41.6472 34.96 39.7372 34.96C37.8172 34.96 36.4472 34.05 36.4472 32.64C36.4472 31.22 37.8172 30.31 39.7372 30.31ZM39.7372 30.97C38.2872 30.97 37.2472 31.63 37.2472 32.64C37.2472 33.64 38.2872 34.3 39.7372 34.3C41.1872 34.3 42.2172 33.64 42.2172 32.64C42.2172 31.63 41.1872 30.97 39.7372 30.97ZM45.7314 30.7273L45.6604 35.9545H44.8366L44.7655 30.7273H45.7314ZM45.2485 38.0568C45.0733 38.0568 44.923 37.9941 44.7975 37.8686C44.672 37.7431 44.6093 37.5928 44.6093 37.4176C44.6093 37.2424 44.672 37.0921 44.7975 36.9666C44.923 36.8411 45.0733 36.7784 45.2485 36.7784C45.4237 36.7784 45.574 36.8411 45.6995 36.9666C45.825 37.0921 45.8877 37.2424 45.8877 37.4176C45.8877 37.5336 45.8581 37.6402 45.7989 37.7372C45.7421 37.8343 45.6652 37.9124 45.5681 37.9716C45.4734 38.0284 45.3669 38.0568 45.2485 38.0568Z" fill="#717171"/>
</svg>
