<svg width="283" height="39" viewBox="0 0 283 39" fill="none" xmlns="http://www.w3.org/2000/svg">
<g filter="url(#filter0_i_185_128)">
<path d="M8.4416 28.65C7.50827 28.9167 6.75827 28.95 6.1916 28.75C5.62494 28.5167 5.27494 28.1833 5.1416 27.75C5.00827 27.2833 5.12494 26.8167 5.4916 26.35C5.85827 25.85 6.50827 25.4667 7.4416 25.2C6.60827 25.4333 5.92494 25.4 5.3916 25.1C4.85827 24.7667 4.50827 24.3167 4.3416 23.75C4.17494 23.15 4.22494 22.5833 4.4916 22.05C4.75827 21.4833 5.30827 21.0667 6.1416 20.8C5.2416 21.0667 4.50827 21.0833 3.9416 20.85C3.37494 20.5833 3.00827 20.2 2.8416 19.7C2.70827 19.2 2.80827 18.7 3.1416 18.2C3.47494 17.6667 4.0916 17.2667 4.9916 17C4.15827 17.2333 3.47494 17.25 2.9416 17.05C2.4416 16.85 2.12494 16.5333 1.9916 16.1C1.85827 15.6667 1.95827 15.2333 2.2916 14.8C2.62494 14.3333 3.20827 13.9833 4.0416 13.75C3.4416 13.9167 2.8916 13.8167 2.3916 13.45C1.8916 13.05 1.47493 12.5167 1.1416 11.85C0.808268 11.15 0.591602 10.4333 0.491602 9.7C0.424935 8.93333 0.491602 8.25 0.691602 7.65C0.891602 7.05 1.2916 6.66667 1.8916 6.5C0.958268 6.2 0.424935 5.75 0.291602 5.15C0.158268 4.55 0.324935 4.05 0.791602 3.65C1.25827 3.25 1.9416 3.2 2.8416 3.5C2.8416 2.7 3.07494 2.1 3.5416 1.7C4.00827 1.3 4.5416 1.1 5.1416 1.1C5.7416 1.1 6.27493 1.3 6.7416 1.7C7.20827 2.1 7.4416 2.7 7.4416 3.5C7.70827 2.93333 8.0916 2.61667 8.5916 2.55C9.0916 2.45 9.57494 2.51666 10.0416 2.75C10.5083 2.98333 10.8416 3.33333 11.0416 3.8C11.2749 4.26666 11.2416 4.78333 10.9416 5.35C11.7083 5.15 12.3583 5.31666 12.8916 5.85C13.4583 6.38333 13.8416 7.06666 14.0416 7.9C14.2749 8.7 14.2749 9.46667 14.0416 10.2C13.8083 10.9 13.3083 11.35 12.5416 11.55C13.0083 11.4167 13.4416 11.5667 13.8416 12C14.2749 12.4 14.6249 12.95 14.8916 13.65C15.1916 14.3167 15.3749 15.0167 15.4416 15.75C15.5416 16.4833 15.5083 17.1333 15.3416 17.7C15.2083 18.2333 14.9083 18.5667 14.4416 18.7C14.8749 18.5333 15.2749 18.4833 15.6416 18.55C16.0416 18.6167 16.3749 18.7667 16.6416 19C17.1083 18.6333 17.5749 18.4667 18.0416 18.5C17.2416 18.0333 17.0083 17.55 17.3416 17.05C17.6749 16.55 18.4749 16.4667 19.7416 16.8C19.0749 16.6333 18.6249 16.3 18.3916 15.8C18.1916 15.2667 18.1583 14.7333 18.2916 14.2C18.4249 13.6333 18.7083 13.1833 19.1416 12.85C19.6083 12.4833 20.1583 12.3833 20.7916 12.55C19.8583 12.3167 19.2416 11.8167 18.9416 11.05C18.6749 10.25 18.6416 9.41667 18.8416 8.55C19.0749 7.68333 19.5083 6.98333 20.1416 6.45C20.7749 5.88333 21.5583 5.73333 22.4916 6C22.1249 5.43333 22.0249 4.9 22.1916 4.4C22.3916 3.86667 22.7249 3.45 23.1916 3.15C23.6916 2.81666 24.2249 2.66666 24.7916 2.7C25.3583 2.7 25.8083 2.96666 26.1416 3.5C26.1416 2.73333 26.3583 2.15 26.7916 1.75C27.2249 1.35 27.7416 1.13333 28.3416 1.1C28.9416 1.03333 29.4916 1.15 29.9916 1.45C30.5249 1.71667 30.8749 2.18333 31.0416 2.85C30.9416 1.68333 31.1249 1.11666 31.5916 1.15C32.0583 1.18333 32.4083 1.88333 32.6416 3.25C33.8416 3.58333 34.5916 3.98333 34.8916 4.45C35.1916 4.88333 35.0916 5.2 34.5916 5.4C34.1249 5.6 33.2916 5.51666 32.0916 5.15C33.2583 5.48333 33.9583 5.95 34.1916 6.55C34.4583 7.15 34.3249 7.63333 33.7916 8C33.2583 8.36667 32.4083 8.36667 31.2416 8C31.8749 8.2 32.3083 8.58333 32.5416 9.15C32.8083 9.71667 32.9083 10.35 32.8416 11.05C32.7749 11.75 32.5749 12.4167 32.2416 13.05C31.9416 13.6833 31.5249 14.1667 30.9916 14.5C30.4916 14.8333 29.9083 14.9 29.2416 14.7C30.0749 14.9333 30.5916 15.45 30.7916 16.25C31.0249 17.0167 31.0083 17.8333 30.7416 18.7C30.5083 19.5333 30.0916 20.2167 29.4916 20.75C28.8916 21.2833 28.1749 21.4333 27.3416 21.2C28.0749 21.4333 28.5583 21.8333 28.7916 22.4C29.0583 22.9333 29.1083 23.4833 28.9416 24.05C28.7749 24.6167 28.4249 25.0667 27.8916 25.4C27.3916 25.7333 26.7749 25.8 26.0416 25.6C26.7416 25.8 27.2416 26.2 27.5416 26.8C27.8416 27.3667 27.9583 28.0167 27.8916 28.75C27.8249 29.4833 27.6249 30.1667 27.2916 30.8C26.9583 31.4333 26.5083 31.9333 25.9416 32.3C25.3749 32.6333 24.7416 32.6833 24.0416 32.45C24.8749 32.95 25.4249 33.4833 25.6916 34.05C25.9583 34.5833 25.9749 35.05 25.7416 35.45C25.5083 35.85 25.0916 36.0833 24.4916 36.15C23.8916 36.2167 23.1583 36 22.2916 35.5C22.2916 36.3667 22.0583 37.0167 21.5916 37.45C21.1249 37.8833 20.5916 38.1 19.9916 38.1C19.3916 38.1 18.8583 37.8833 18.3916 37.45C17.9249 37.0167 17.6916 36.3667 17.6916 35.5C17.6916 36.5 17.4916 37.1667 17.0916 37.5C16.6916 37.8333 16.2916 37.8333 15.8916 37.5C15.4916 37.1667 15.2916 36.5 15.2916 35.5C15.2916 36.4333 15.0583 37.1 14.5916 37.5C14.1583 37.9 13.5749 37.9 12.8416 37.5C12.1416 37.1 11.3916 36.2 10.5916 34.8C9.82494 33.3667 9.10827 31.3167 8.4416 28.65ZM43.5877 35.85C43.421 36.35 43.1044 36.6833 42.6377 36.85C42.2044 36.9833 41.7377 36.9667 41.2377 36.8C40.771 36.6333 40.3877 36.3667 40.0877 36C39.821 35.6 39.771 35.15 39.9377 34.65C39.6377 34.9167 39.2377 34.9333 38.7377 34.7C38.2377 34.4667 37.721 34.1 37.1877 33.6C36.6877 33.1 36.2377 32.55 35.8377 31.95C35.471 31.3167 35.221 30.7333 35.0877 30.2C34.9877 29.6667 35.0877 29.2833 35.3877 29.05C34.4877 29.1833 33.8377 29.05 33.4377 28.65C33.071 28.2167 33.0044 27.75 33.2377 27.25C33.471 26.7167 34.0377 26.3833 34.9377 26.25C34.4377 26.25 34.0544 26.0667 33.7877 25.7C33.5544 25.3333 33.421 24.9167 33.3877 24.45C33.3877 23.95 33.5044 23.5167 33.7377 23.15C34.0044 22.75 34.3877 22.55 34.8877 22.55C34.3544 22.45 33.9877 22.15 33.7877 21.65C33.621 21.15 33.5877 20.6167 33.6877 20.05C33.821 19.45 34.0544 18.95 34.3877 18.55C34.7544 18.15 35.2044 18 35.7377 18.1C35.171 17.7333 34.8544 17.3 34.7877 16.8C34.721 16.3 34.8044 15.8667 35.0377 15.5C35.3044 15.1 35.671 14.85 36.1377 14.75C36.6377 14.6167 37.171 14.7333 37.7377 15.1C37.4377 14.6667 37.3544 14.25 37.4877 13.85C37.621 13.4167 37.871 13.0833 38.2377 12.85C38.6044 12.5833 39.0044 12.4667 39.4377 12.5C39.871 12.5333 40.2377 12.7667 40.5377 13.2C40.3044 12.5 40.321 11.9833 40.5877 11.65C40.8544 11.2833 41.1877 11.15 41.5877 11.25C42.021 11.35 42.371 11.75 42.6377 12.45C42.5377 11.9167 42.621 11.5 42.8877 11.2C43.1544 10.9 43.4877 10.7167 43.8877 10.65C44.321 10.55 44.721 10.6 45.0877 10.8C45.4544 11 45.6877 11.35 45.7877 11.85C45.7877 11.35 46.021 10.9833 46.4877 10.75C46.9877 10.4833 47.5544 10.35 48.1877 10.35C48.821 10.35 49.371 10.4833 49.8377 10.75C50.3377 10.9833 50.5877 11.35 50.5877 11.85C50.721 11.15 51.0377 10.6667 51.5377 10.4C52.071 10.1333 52.621 10.0667 53.1877 10.2C53.7544 10.3 54.2044 10.5833 54.5377 11.05C54.9044 11.4833 55.021 12.0667 54.8877 12.8C55.121 12.3333 55.4544 12.0833 55.8877 12.05C56.3544 12.0167 56.7877 12.1167 57.1877 12.35C57.621 12.55 57.921 12.85 58.0877 13.25C58.2877 13.65 58.2544 14.0833 57.9877 14.55C58.521 14.1833 59.0544 14.1167 59.5877 14.35C60.121 14.55 60.5544 14.9 60.8877 15.4C61.2544 15.9 61.4544 16.45 61.4877 17.05C61.521 17.6167 61.271 18.0667 60.7377 18.4C61.3044 18.3667 61.771 18.5667 62.1377 19C62.5377 19.4333 62.821 20 62.9877 20.7C63.1877 21.3667 63.271 22.0667 63.2377 22.8C63.2044 23.5 63.0377 24.1 62.7377 24.6C62.471 25.1 62.0544 25.3833 61.4877 25.45C62.1877 25.5833 62.6544 25.9333 62.8877 26.5C63.121 27.0333 63.171 27.6333 63.0377 28.3C62.9377 28.9333 62.6544 29.4667 62.1877 29.9C61.7544 30.3333 61.2044 30.4833 60.5377 30.35C61.0377 30.6833 61.3044 31.0833 61.3377 31.55C61.4044 31.9833 61.3044 32.3833 61.0377 32.75C60.771 33.1167 60.421 33.3667 59.9877 33.5C59.5544 33.6 59.0877 33.4833 58.5877 33.15C58.8877 33.6167 58.971 34.0667 58.8377 34.5C58.7044 34.9 58.4377 35.2167 58.0377 35.45C57.671 35.6833 57.2544 35.7833 56.7877 35.75C56.3544 35.7167 56.0044 35.4667 55.7377 35C55.9377 35.6333 55.8377 36.1333 55.4377 36.5C55.0377 36.8667 54.571 37.0167 54.0377 36.95C53.5377 36.85 53.1877 36.4667 52.9877 35.8C53.121 36.6 52.971 37.15 52.5377 37.45C52.1044 37.7833 51.621 37.85 51.0877 37.65C50.5877 37.45 50.2877 36.9667 50.1877 36.2C50.2544 37.6333 49.7544 38.35 48.6877 38.35C47.621 38.35 45.921 37.5167 43.5877 35.85ZM51.4877 28C51.121 27.9667 50.8544 27.7 50.6877 27.2C50.5544 26.7 50.4877 26.1167 50.4877 25.45C50.521 24.75 50.621 24.1333 50.7877 23.6C50.9544 23.0667 51.2044 22.75 51.5377 22.65C51.2044 22.65 50.871 22.4167 50.5377 21.95C50.2377 21.4833 49.9877 20.95 49.7877 20.35C49.621 19.7167 49.5544 19.1667 49.5877 18.7C49.2877 18.9667 48.921 19.0667 48.4877 19C48.0544 18.9333 47.721 18.7167 47.4877 18.35C47.4544 18.6167 47.3544 18.7833 47.1877 18.85C47.021 18.9167 46.8377 18.8833 46.6377 18.75C46.7377 19.2167 46.7044 19.7667 46.5377 20.4C46.4044 21 46.1877 21.5333 45.8877 22C45.5877 22.4667 45.2544 22.7 44.8877 22.7C45.2877 22.8 45.5377 23.0833 45.6377 23.55C45.771 24.0167 45.7544 24.4833 45.5877 24.95C45.421 25.3833 45.121 25.6 44.6877 25.6C45.0544 25.5333 45.371 25.7333 45.6377 26.2C45.9377 26.6333 46.1377 27.15 46.2377 27.75C46.371 28.35 46.3877 28.8667 46.2877 29.3C46.7544 29.0333 47.4544 28.8833 48.3877 28.85C49.321 28.8167 50.3544 28.5333 51.4877 28ZM67.7178 35.45C67.2844 35.45 66.9344 35.2167 66.6678 34.75C66.4344 34.2833 66.2678 33.7 66.1678 33C66.0678 32.3 66.0678 31.6 66.1678 30.9C66.2678 30.2 66.4344 29.6167 66.6678 29.15C66.9344 28.6833 67.2844 28.45 67.7178 28.45C67.0844 28.45 66.6011 28.1667 66.2678 27.6C65.9678 27.0333 65.8178 26.3833 65.8178 25.65C65.8178 24.9167 65.9678 24.2667 66.2678 23.7C66.6011 23.1333 67.0844 22.85 67.7178 22.85C67.0511 22.85 66.5511 22.7 66.2178 22.4C65.8844 22.0667 65.7178 21.6833 65.7178 21.25C65.7178 20.8167 65.8844 20.45 66.2178 20.15C66.5511 19.8167 67.0511 19.65 67.7178 19.65C67.0511 19.65 66.5511 19.35 66.2178 18.75C65.8844 18.1167 65.7178 17.3833 65.7178 16.55C65.7178 15.7167 65.8844 15 66.2178 14.4C66.5511 13.7667 67.0511 13.45 67.7178 13.45C67.0178 13.45 66.4844 13.2833 66.1178 12.95C65.7844 12.5833 65.6178 12.1833 65.6178 11.75C65.6178 11.3167 65.7844 10.9333 66.1178 10.6C66.4844 10.2333 67.0178 10.05 67.7178 10.05C67.2178 10.05 66.8011 9.81666 66.4678 9.35C66.1678 8.88333 65.9678 8.3 65.8678 7.6C65.7678 6.9 65.7678 6.2 65.8678 5.5C65.9678 4.8 66.1678 4.21667 66.4678 3.75C66.8011 3.28333 67.2178 3.05 67.7178 3.05C67.5844 2.28333 67.6511 1.75 67.9178 1.45C68.2178 1.15 68.5344 1.1 68.8678 1.3C69.2344 1.5 69.4844 1.98333 69.6178 2.75C69.6178 2.18333 69.8511 1.73333 70.3178 1.4C70.8178 1.06666 71.4178 0.849998 72.1178 0.749999C72.8178 0.616665 73.5178 0.616665 74.2178 0.749999C74.9511 0.849998 75.5511 1.06666 76.0178 1.4C76.5178 1.73333 76.7678 2.18333 76.7678 2.75C77.4011 2.75 77.8678 3.08333 78.1678 3.75C78.5011 4.38333 78.6678 5.13333 78.6678 6C78.7011 6.83333 78.5678 7.58333 78.2678 8.25C77.9678 8.91667 77.5011 9.25 76.8678 9.25C77.4011 9.25 77.8344 9.5 78.1678 10C78.5011 10.5 78.7178 11.1167 78.8178 11.85C78.9178 12.5833 78.9178 13.3167 78.8178 14.05C78.7178 14.7833 78.5011 15.4 78.1678 15.9C77.8344 16.4 77.4011 16.65 76.8678 16.65C77.5011 16.65 77.9678 16.8333 78.2678 17.2C78.6011 17.5667 78.7678 17.9833 78.7678 18.45C78.7678 18.9167 78.6011 19.3333 78.2678 19.7C77.9678 20.0667 77.5011 20.25 76.8678 20.25C77.3678 20.25 77.7511 20.4333 78.0178 20.8C78.2844 21.1333 78.4178 21.5167 78.4178 21.95C78.4178 22.3833 78.2844 22.7833 78.0178 23.15C77.7511 23.4833 77.3678 23.65 76.8678 23.65C77.5011 23.65 77.9678 24 78.2678 24.7C78.6011 25.3667 78.7678 26.15 78.7678 27.05C78.7678 27.95 78.6011 28.75 78.2678 29.45C77.9678 30.1167 77.5011 30.45 76.8678 30.45C77.5344 30.45 78.0178 30.65 78.3178 31.05C78.6511 31.45 78.8178 31.9167 78.8178 32.45C78.8178 32.9833 78.6511 33.45 78.3178 33.85C78.0178 34.25 77.5344 34.45 76.8678 34.45C77.3011 35.05 77.4178 35.5667 77.2178 36C77.0511 36.4333 76.7344 36.65 76.2678 36.65C75.8344 36.65 75.4011 36.35 74.9678 35.75C74.9678 36.7167 74.7011 37.35 74.1678 37.65C73.6344 37.9833 73.1011 37.9833 72.5678 37.65C72.0678 37.35 71.8178 36.7167 71.8178 35.75C71.8178 36.2833 71.6011 36.6833 71.1678 36.95C70.7678 37.2167 70.3011 37.3333 69.7678 37.3C69.2678 37.3 68.8011 37.15 68.3678 36.85C67.9678 36.5167 67.7511 36.05 67.7178 35.45ZM88.6299 35.55C88.2632 35.9833 87.8132 36.15 87.2799 36.05C86.7465 35.95 86.2465 35.7 85.7799 35.3C85.3465 34.9 85.0465 34.45 84.8799 33.95C84.7132 33.4167 84.8132 32.95 85.1799 32.55C84.5799 32.7833 84.0632 32.8167 83.6299 32.65C83.2299 32.45 82.9465 32.1667 82.7799 31.8C82.6132 31.4 82.6132 30.9833 82.7799 30.55C82.9799 30.1167 83.3799 29.7833 83.9799 29.55C83.2799 29.6167 82.7299 29.4667 82.3299 29.1C81.9632 28.7333 81.7465 28.2833 81.6799 27.75C81.6465 27.2167 81.7799 26.7333 82.0799 26.3C82.4132 25.8667 82.9299 25.6167 83.6299 25.55C82.9632 25.55 82.4632 25.3 82.1299 24.8C81.7965 24.3 81.6299 23.7167 81.6299 23.05C81.6299 22.3833 81.7965 21.8 82.1299 21.3C82.4632 20.8 82.9632 20.55 83.6299 20.55C82.8632 20.55 82.3465 20.3833 82.0799 20.05C81.8465 19.7167 81.8465 19.3833 82.0799 19.05C82.3465 18.7167 82.8632 18.55 83.6299 18.55C82.7965 18.55 82.2299 18.3333 81.9299 17.9C81.6632 17.4667 81.6632 17.0333 81.9299 16.6C82.2299 16.1667 82.7965 15.95 83.6299 15.95C82.8965 15.7833 82.3965 15.4667 82.1299 15C81.8632 14.5333 81.7799 14.0667 81.8799 13.6C82.0132 13.1 82.2965 12.7167 82.7299 12.45C83.1965 12.15 83.7965 12.0833 84.5299 12.25C84.5299 11.65 84.7632 11.1833 85.2299 10.85C85.7299 10.4833 86.3299 10.25 87.0299 10.15C87.7632 10.0167 88.4799 10.0167 89.1799 10.15C89.8799 10.25 90.4632 10.4833 90.9299 10.85C91.4299 11.1833 91.6799 11.65 91.6799 12.25C92.3465 11.85 92.9299 11.8 93.4299 12.1C93.9299 12.4 94.2132 12.85 94.2799 13.45C94.3465 14.0167 94.0465 14.5 93.3799 14.9C93.8132 14.9 94.1299 15.1 94.3299 15.5C94.5632 15.9 94.6799 16.3667 94.6799 16.9C94.6799 17.4333 94.5632 17.9 94.3299 18.3C94.1299 18.7 93.8132 18.9 93.3799 18.9C93.8799 18.9 94.2632 19.1167 94.5299 19.55C94.7966 19.9833 94.9299 20.4833 94.9299 21.05C94.9299 21.6167 94.7966 22.1333 94.5299 22.6C94.2632 23.0333 93.8799 23.25 93.3799 23.25C93.8799 23.2167 94.2632 23.3833 94.5299 23.75C94.8299 24.1167 94.9799 24.5667 94.9799 25.1C95.0132 25.6 94.9132 26.0333 94.6799 26.4C95.2799 26.3333 95.9466 26.45 96.6799 26.75C97.4465 27.05 98.0466 27.4333 98.4799 27.9C98.6132 27.5333 98.8132 27.2167 99.0799 26.95C99.3799 26.65 99.6966 26.4667 100.03 26.4C99.5299 26.1333 99.3466 25.7333 99.4799 25.2C99.6466 24.6667 100.113 24.4 100.88 24.4C100.413 24.4 100.047 24.1 99.7799 23.5C99.5466 22.9 99.4299 22.2167 99.4299 21.45C99.4299 20.65 99.5466 19.9667 99.7799 19.4C100.047 18.8 100.413 18.5 100.88 18.5C100.213 18.5 99.7632 18.3167 99.5299 17.95C99.3299 17.5833 99.3299 17.2167 99.5299 16.85C99.7632 16.4833 100.213 16.3 100.88 16.3C100.38 16.2333 100.013 15.9833 99.7799 15.55C99.5799 15.1167 99.5132 14.6333 99.5799 14.1C99.6465 13.5667 99.8299 13.1167 100.13 12.75C100.43 12.35 100.847 12.1833 101.38 12.25C101.38 11.5167 101.563 10.9667 101.93 10.6C102.33 10.2333 102.763 10.05 103.23 10.05C103.73 10.05 104.163 10.2333 104.53 10.6C104.93 10.9667 105.13 11.5167 105.13 12.25C105.13 11.4833 105.347 10.9833 105.78 10.75C106.213 10.4833 106.647 10.4833 107.08 10.75C107.513 10.9833 107.73 11.4833 107.73 12.25C107.997 11.75 108.347 11.4667 108.78 11.4C109.213 11.3333 109.613 11.4167 109.98 11.65C110.38 11.85 110.647 12.1667 110.78 12.6C110.947 13 110.88 13.45 110.58 13.95C111.247 13.95 111.747 14.1167 112.08 14.45C112.413 14.7833 112.58 15.1833 112.58 15.65C112.58 16.0833 112.413 16.4833 112.08 16.85C111.747 17.1833 111.247 17.35 110.58 17.35C111.413 17.35 111.963 17.5833 112.23 18.05C112.497 18.4833 112.497 18.9333 112.23 19.4C111.963 19.8667 111.413 20.1 110.58 20.1C111.113 20.1 111.513 20.4 111.78 21C112.047 21.5667 112.18 22.2333 112.18 23C112.18 23.7667 112.047 24.45 111.78 25.05C111.513 25.6167 111.113 25.9 110.58 25.9C111.247 25.9 111.73 26.15 112.03 26.65C112.363 27.1167 112.53 27.6667 112.53 28.3C112.53 28.9333 112.363 29.4833 112.03 29.95C111.73 30.4167 111.247 30.65 110.58 30.65C110.98 30.75 111.23 31.0833 111.33 31.65C111.43 32.1833 111.397 32.8 111.23 33.5C111.097 34.1667 110.863 34.7333 110.53 35.2C110.23 35.6667 109.88 35.85 109.48 35.75C109.48 36.6167 109.247 37.1833 108.78 37.45C108.313 37.75 107.847 37.75 107.38 37.45C106.913 37.1833 106.68 36.6167 106.68 35.75C106.68 36.5833 106.43 37.1333 105.93 37.4C105.463 37.7 104.98 37.7167 104.48 37.45C103.98 37.1833 103.73 36.6167 103.73 35.75C103.497 36.45 103.197 36.9 102.83 37.1C102.463 37.3 102.13 37.2833 101.83 37.05C101.563 36.8167 101.447 36.4167 101.48 35.85C101.213 36.3833 100.713 36.7333 99.9799 36.9C99.2799 37.0667 98.6132 37.0333 97.9799 36.8C97.3466 36.5333 97.0299 36.0667 97.0299 35.4C97.0632 35.8667 96.8299 36.2667 96.3299 36.6C95.8299 36.9 95.1466 37.0833 94.2799 37.15C93.4466 37.2167 92.5299 37.1333 91.5299 36.9C90.5299 36.6667 89.5632 36.2167 88.6299 35.55ZM117.471 36.05C116.938 36.0167 116.538 35.8 116.271 35.4C116.005 35 115.871 34.5333 115.871 34C115.905 33.4667 116.055 33.0167 116.321 32.65C116.621 32.25 117.038 32.05 117.571 32.05C116.938 32.05 116.455 31.75 116.121 31.15C115.788 30.5167 115.621 29.8 115.621 29C115.621 28.1667 115.788 27.45 116.121 26.85C116.455 26.2167 116.938 25.9 117.571 25.9C116.971 25.9 116.521 25.5833 116.221 24.95C115.955 24.2833 115.821 23.5333 115.821 22.7C115.821 21.8667 115.955 21.1333 116.221 20.5C116.521 19.8333 116.971 19.5 117.571 19.5C116.871 19.5 116.338 19.3 115.971 18.9C115.638 18.5 115.471 18.05 115.471 17.55C115.471 17.0167 115.638 16.55 115.971 16.15C116.338 15.75 116.871 15.55 117.571 15.55C117.071 15.45 116.721 15.2167 116.521 14.85C116.321 14.4833 116.255 14.0833 116.321 13.65C116.388 13.2167 116.571 12.8667 116.871 12.6C117.171 12.3 117.571 12.1833 118.071 12.25C118.071 11.6833 118.321 11.2333 118.821 10.9C119.321 10.5667 119.955 10.35 120.721 10.25C121.488 10.1167 122.238 10.1167 122.971 10.25C123.738 10.35 124.371 10.5667 124.871 10.9C125.371 11.2333 125.621 11.6833 125.621 12.25C126.021 11.8167 126.471 11.6833 126.971 11.85C127.505 11.9833 127.938 12.25 128.271 12.65C128.605 12.1167 129.121 11.8167 129.821 11.75C130.521 11.65 131.088 11.9833 131.521 12.75C131.421 12.1833 131.588 11.7167 132.021 11.35C132.488 10.95 133.055 10.6833 133.721 10.55C134.388 10.4167 135.005 10.45 135.571 10.65C136.138 10.8167 136.471 11.1833 136.571 11.75C136.805 11.35 137.188 11.15 137.721 11.15C138.288 11.1167 138.888 11.2333 139.521 11.5C140.188 11.7667 140.805 12.1 141.371 12.5C141.938 12.9 142.355 13.3333 142.621 13.8C142.921 14.2667 142.955 14.7 142.721 15.1C143.455 14.7667 144.038 14.7333 144.471 15C144.905 15.2667 145.088 15.6667 145.021 16.2C144.988 16.7 144.605 17.1167 143.871 17.45C144.471 17.3833 144.955 17.5833 145.321 18.05C145.688 18.5167 145.905 19.0833 145.971 19.75C146.071 20.3833 146.005 20.9833 145.771 21.55C145.538 22.0833 145.121 22.3833 144.521 22.45C145.155 22.45 145.621 22.8 145.921 23.5C146.255 24.1667 146.421 24.95 146.421 25.85C146.421 26.75 146.255 27.55 145.921 28.25C145.621 28.9167 145.155 29.25 144.521 29.25C145.221 29.25 145.671 29.4833 145.871 29.95C146.105 30.4167 146.105 30.8833 145.871 31.35C145.671 31.8167 145.221 32.05 144.521 32.05C145.121 32.1167 145.538 32.3667 145.771 32.8C146.038 33.2 146.138 33.65 146.071 34.15C146.005 34.6167 145.788 35.0167 145.421 35.35C145.088 35.6833 144.621 35.8167 144.021 35.75C144.021 36.2833 143.755 36.7 143.221 37C142.721 37.2667 142.121 37.4 141.421 37.4C140.755 37.4 140.155 37.2667 139.621 37C139.121 36.7 138.871 36.2833 138.871 35.75C138.871 36.35 138.655 36.8 138.221 37.1C137.788 37.4333 137.271 37.6 136.671 37.6C136.105 37.6333 135.605 37.5 135.171 37.2C134.738 36.9333 134.505 36.4833 134.471 35.85C134.071 35.85 133.771 35.5167 133.571 34.85C133.405 34.1833 133.338 33.4167 133.371 32.55C133.438 31.6833 133.588 30.9333 133.821 30.3C134.055 29.6333 134.371 29.3 134.771 29.3C134.238 29.3 133.821 29.1 133.521 28.7C133.221 28.2667 133.055 27.7667 133.021 27.2C132.988 26.6333 133.071 26.1 133.271 25.6C133.505 25.1 133.855 24.7833 134.321 24.65C133.888 24.6167 133.471 24.3833 133.071 23.95C132.671 23.4833 132.305 22.9333 131.971 22.3C131.671 21.6333 131.488 20.9833 131.421 20.35C131.021 20.6833 130.538 20.9167 129.971 21.05C129.438 21.1833 128.955 21.1833 128.521 21.05C128.688 21.45 128.738 21.9 128.671 22.4C128.605 22.9 128.455 23.3333 128.221 23.7C127.988 24.0667 127.671 24.2333 127.271 24.2C127.871 24.2 128.255 24.3667 128.421 24.7C128.621 25 128.621 25.3167 128.421 25.65C128.255 25.9833 127.871 26.15 127.271 26.15C127.771 26.15 128.155 26.4667 128.421 27.1C128.688 27.7333 128.821 28.4667 128.821 29.3C128.821 30.1333 128.688 30.8833 128.421 31.55C128.155 32.1833 127.771 32.5 127.271 32.5C127.771 32.8 128.038 33.2 128.071 33.7C128.105 34.1667 127.988 34.6167 127.721 35.05C127.455 35.4833 127.088 35.8 126.621 36C126.155 36.1667 125.671 36.0833 125.171 35.75C125.171 36.25 124.921 36.65 124.421 36.95C123.921 37.2167 123.288 37.4 122.521 37.5C121.788 37.6333 121.038 37.65 120.271 37.55C119.505 37.4833 118.855 37.3167 118.321 37.05C117.788 36.8167 117.505 36.4833 117.471 36.05ZM151.263 29.3C150.729 29.3 150.329 28.9667 150.063 28.3C149.829 27.6 149.713 26.8 149.713 25.9C149.713 25 149.829 24.2167 150.063 23.55C150.329 22.85 150.729 22.5 151.263 22.5C150.663 22.5 150.196 22.2 149.863 21.6C149.563 21 149.413 20.3167 149.413 19.55C149.413 18.75 149.563 18.05 149.863 17.45C150.196 16.85 150.663 16.55 151.263 16.55C150.863 16.3167 150.679 15.9333 150.713 15.4C150.779 14.8333 150.963 14.2667 151.263 13.7C151.596 13.1333 151.979 12.7 152.413 12.4C152.879 12.0667 153.313 12.0167 153.713 12.25C153.713 11.6167 153.896 11.15 154.263 10.85C154.663 10.5167 155.096 10.35 155.563 10.35C156.063 10.35 156.496 10.5167 156.863 10.85C157.263 11.15 157.463 11.6167 157.463 12.25C157.463 11.4167 157.613 10.8667 157.913 10.6C158.246 10.3333 158.579 10.3333 158.913 10.6C159.246 10.8667 159.413 11.4167 159.413 12.25C159.913 11.9167 160.346 11.8333 160.713 12C161.113 12.1333 161.379 12.3667 161.513 12.7C162.046 12.2333 162.713 11.85 163.513 11.55C164.346 11.25 165.113 11.1 165.813 11.1C166.513 11.1 166.963 11.35 167.163 11.85C167.296 11.4167 167.629 11.15 168.163 11.05C168.729 10.95 169.363 10.9667 170.063 11.1C170.763 11.2333 171.446 11.45 172.113 11.75C172.779 12.05 173.296 12.4 173.663 12.8C174.063 13.2 174.196 13.6167 174.063 14.05C174.729 13.7167 175.279 13.6 175.713 13.7C176.179 13.6 176.596 13.75 176.963 14.15C176.729 13.7167 176.696 13.3333 176.863 13C177.029 12.6667 177.313 12.5 177.713 12.5C178.113 12.5 178.529 12.7333 178.963 13.2C178.796 12.7333 178.863 12.3 179.163 11.9C179.496 11.5 179.929 11.2 180.463 11C181.029 10.8 181.563 10.75 182.063 10.85C182.563 10.95 182.896 11.25 183.063 11.75C183.229 11.3167 183.629 11.0833 184.263 11.05C184.896 10.9833 185.579 11.0833 186.313 11.35C187.079 11.6167 187.713 11.9667 188.213 12.4C188.713 12.8 188.879 13.2167 188.713 13.65C189.279 13.4167 189.829 13.5 190.363 13.9C190.896 14.3 191.329 14.8667 191.663 15.6C191.996 16.3 192.146 16.9833 192.113 17.65C192.079 18.3167 191.779 18.7833 191.213 19.05C191.779 19.0167 192.246 19.25 192.613 19.75C192.979 20.2167 193.229 20.8167 193.363 21.55C193.496 22.25 193.513 22.9667 193.413 23.7C193.313 24.4 193.096 25 192.763 25.5C192.429 26 191.979 26.25 191.413 26.25C192.379 26.25 193.013 26.4833 193.313 26.95C193.646 27.4167 193.646 27.8833 193.313 28.35C193.013 28.8167 192.379 29.05 191.413 29.05C191.946 29.05 192.346 29.25 192.613 29.65C192.879 30.0167 193.013 30.45 193.013 30.95C193.013 31.45 192.879 31.9 192.613 32.3C192.346 32.6667 191.946 32.85 191.413 32.85C192.146 33.0833 192.563 33.4833 192.663 34.05C192.763 34.6167 192.613 35.1 192.213 35.5C191.813 35.9 191.246 35.9833 190.513 35.75C190.513 36.4167 190.263 36.9167 189.763 37.25C189.263 37.5833 188.679 37.75 188.013 37.75C187.346 37.75 186.763 37.5833 186.263 37.25C185.763 36.9167 185.513 36.4167 185.513 35.75C185.479 36.4167 185.196 36.85 184.663 37.05C184.163 37.2833 183.646 37.2667 183.113 37C182.613 36.7667 182.379 36.3167 182.413 35.65C181.879 35.65 181.479 35.3833 181.213 34.85C180.979 34.2833 180.863 33.65 180.863 32.95C180.863 32.25 180.979 31.6333 181.213 31.1C181.479 30.5333 181.879 30.25 182.413 30.25C181.913 30.25 181.529 29.9167 181.263 29.25C180.996 28.55 180.846 27.7333 180.813 26.8C180.779 25.8333 180.863 24.95 181.063 24.15C181.263 23.3167 181.579 22.8 182.013 22.6C181.613 22.6333 181.229 22.4667 180.863 22.1C180.529 21.7 180.279 21.25 180.113 20.75C179.713 21.2167 179.229 21.6333 178.663 22C178.096 22.3667 177.579 22.5833 177.113 22.65C177.546 22.9833 177.663 23.4167 177.463 23.95C177.263 24.45 176.763 24.7 175.963 24.7C176.463 24.7 176.829 24.9667 177.063 25.5C177.296 26.0333 177.413 26.6667 177.413 27.4C177.413 28.1 177.296 28.7167 177.063 29.25C176.829 29.7833 176.463 30.05 175.963 30.05C176.496 30.05 176.879 30.3167 177.113 30.85C177.379 31.35 177.513 31.9333 177.513 32.6C177.513 33.2333 177.379 33.8 177.113 34.3C176.879 34.8 176.496 35.05 175.963 35.05C176.063 35.6833 175.946 36.1833 175.613 36.55C175.279 36.9167 174.846 37.15 174.313 37.25C173.813 37.35 173.329 37.2667 172.863 37C172.429 36.7667 172.163 36.35 172.063 35.75C172.063 36.45 171.813 36.9833 171.313 37.35C170.846 37.7167 170.296 37.9 169.663 37.9C169.029 37.9 168.463 37.7167 167.963 37.35C167.496 36.9833 167.263 36.45 167.263 35.75C166.163 36.1167 165.563 36.15 165.463 35.85C165.363 35.55 165.863 35.2167 166.963 34.85C166.263 34.85 165.796 34.6667 165.563 34.3C165.329 33.9333 165.329 33.5667 165.563 33.2C165.796 32.8333 166.263 32.65 166.963 32.65C166.596 32.65 166.296 32.4 166.063 31.9C165.863 31.4 165.729 30.7667 165.663 30C165.596 29.2333 165.596 28.4833 165.663 27.75C165.729 26.9833 165.863 26.35 166.063 25.85C166.296 25.35 166.596 25.1 166.963 25.1C166.429 25.1 166.046 24.95 165.813 24.65C165.613 24.3167 165.563 23.9833 165.663 23.65C165.796 23.2833 166.079 23.05 166.513 22.95C166.146 22.9167 165.779 22.6667 165.413 22.2C165.046 21.7 164.779 21.1667 164.613 20.6C164.213 21.0667 163.696 21.4667 163.063 21.8C162.429 22.1 161.846 22.1833 161.313 22.05C161.579 22.4833 161.763 23.0833 161.863 23.85C161.963 24.5833 161.979 25.3333 161.913 26.1C161.846 26.8667 161.679 27.5333 161.413 28.1C161.179 28.6333 160.863 28.8833 160.463 28.85C161.063 28.85 161.446 29.1 161.613 29.6C161.813 30.1 161.813 30.6 161.613 31.1C161.446 31.6 161.063 31.85 160.463 31.85C160.963 32.0167 161.279 32.3333 161.413 32.8C161.546 33.2333 161.546 33.7167 161.413 34.25C161.279 34.75 161.029 35.1667 160.663 35.5C160.296 35.8 159.863 35.8833 159.363 35.75C159.363 36.45 159.163 36.9667 158.763 37.3C158.363 37.6333 157.896 37.8 157.363 37.8C156.829 37.8 156.363 37.6333 155.963 37.3C155.563 36.9667 155.363 36.45 155.363 35.75C155.363 36.3167 155.163 36.7167 154.763 36.95C154.363 37.15 153.896 37.0667 153.363 36.7C152.829 36.3 152.346 35.5167 151.913 34.35C151.513 33.15 151.296 31.4667 151.263 29.3ZM198.087 33.3C197.72 33.3 197.403 33.0833 197.137 32.65C196.903 32.1833 196.737 31.6 196.637 30.9C196.537 30.2 196.503 29.5 196.537 28.8C196.603 28.1 196.737 27.5167 196.937 27.05C197.137 26.55 197.437 26.3 197.837 26.3C197.67 26 197.753 25.6333 198.087 25.2C198.42 24.7667 198.887 24.35 199.487 23.95C200.12 23.5167 200.77 23.15 201.437 22.85C202.137 22.55 202.753 22.3667 203.287 22.3C203.82 22.2333 204.17 22.35 204.337 22.65C204.27 22.2167 204.42 21.8333 204.787 21.5C205.187 21.1667 205.687 20.9167 206.287 20.75C206.887 20.5833 207.47 20.5167 208.037 20.55C208.637 20.5833 209.103 20.75 209.437 21.05C209.303 20.5167 209.47 19.9333 209.937 19.3C209.103 19.2667 208.337 19.1333 207.637 18.9C206.937 18.6333 206.603 18.2833 206.637 17.85C206.637 18.35 206.437 18.7167 206.037 18.95C205.637 19.1833 205.17 19.3 204.637 19.3C204.137 19.3 203.687 19.1833 203.287 18.95C202.887 18.7167 202.687 18.35 202.687 17.85C202.387 18.35 202.003 18.6333 201.537 18.7C201.07 18.7667 200.603 18.6833 200.137 18.45C199.703 18.1833 199.387 17.8333 199.187 17.4C198.987 16.9333 199.037 16.45 199.337 15.95C198.77 15.3167 198.553 14.75 198.687 14.25C198.853 13.7167 199.203 13.4 199.737 13.3C200.27 13.2 200.82 13.4667 201.387 14.1C200.987 13.3333 200.887 12.7333 201.087 12.3C201.287 11.8667 201.603 11.7 202.037 11.8C202.503 11.8667 202.937 12.3 203.337 13.1C203.203 12.5667 203.27 12.1167 203.537 11.75C203.837 11.35 204.22 11.0833 204.687 10.95C205.187 10.8167 205.653 10.8333 206.087 11C206.553 11.1667 206.853 11.5167 206.987 12.05C206.953 11.3833 207.17 10.8833 207.637 10.55C208.103 10.1833 208.653 9.98333 209.287 9.95C209.92 9.91666 210.487 10.05 210.987 10.35C211.487 10.65 211.753 11.1333 211.787 11.8C211.853 10.9 212.087 10.3167 212.487 10.05C212.887 9.78333 213.253 9.81666 213.587 10.15C213.92 10.4833 214.053 11.1 213.987 12C214.153 11.4 214.47 11.0167 214.937 10.85C215.403 10.65 215.887 10.6333 216.387 10.8C216.92 10.9333 217.337 11.2167 217.637 11.65C217.937 12.05 218.003 12.5333 217.837 13.1C218.203 12.6333 218.637 12.4167 219.137 12.45C219.637 12.45 220.087 12.6167 220.487 12.95C220.92 13.25 221.187 13.65 221.287 14.15C221.42 14.65 221.303 15.1333 220.937 15.6C221.737 15.2333 222.387 15.2333 222.887 15.6C223.387 15.9667 223.603 16.45 223.537 17.05C223.47 17.65 223.037 18.1333 222.237 18.5C222.903 18.4667 223.403 18.7667 223.737 19.4C224.103 20 224.303 20.7 224.337 21.5C224.403 22.3 224.287 23.0333 223.987 23.7C223.687 24.3333 223.203 24.6667 222.537 24.7C223.07 24.7 223.47 24.9167 223.737 25.35C224.003 25.75 224.137 26.2333 224.137 26.8C224.137 27.3333 224.003 27.8167 223.737 28.25C223.47 28.65 223.07 28.85 222.537 28.85C223.137 28.85 223.62 29.0833 223.987 29.55C224.353 29.9833 224.603 30.55 224.737 31.25C224.903 31.9167 224.937 32.6 224.837 33.3C224.737 34 224.52 34.6 224.187 35.1C223.853 35.5667 223.403 35.8167 222.837 35.85C222.803 36.3833 222.537 36.8167 222.037 37.15C221.57 37.4833 220.987 37.7 220.287 37.8C219.587 37.9 218.87 37.8833 218.137 37.75C217.437 37.65 216.853 37.4167 216.387 37.05C215.92 36.7167 215.687 36.2833 215.687 35.75C215.687 36.5833 215.503 37.15 215.137 37.45C214.77 37.75 214.403 37.75 214.037 37.45C213.67 37.1833 213.487 36.6167 213.487 35.75C213.053 36.2833 212.603 36.5667 212.137 36.6C211.67 36.6333 211.27 36.5 210.937 36.2C210.637 35.9 210.503 35.5333 210.537 35.1C210.003 35.5333 209.137 35.8333 207.937 36C206.77 36.1667 205.337 36.0667 203.637 35.7C201.937 35.3 200.087 34.5 198.087 33.3ZM210.887 30.85C210.587 30.6833 210.47 30.3833 210.537 29.95C210.603 29.5167 210.753 29.05 210.987 28.55C211.253 28.05 211.553 27.6333 211.887 27.3C211.587 27.2333 211.303 27.0833 211.037 26.85C210.803 26.6167 210.653 26.35 210.587 26.05C210.353 26.3833 210.003 26.6667 209.537 26.9C209.07 27.1 208.587 27.2167 208.087 27.25C207.62 27.2833 207.237 27.2 206.937 27C207.037 27.3 206.97 27.5667 206.737 27.8C207.203 27.9667 207.703 28.2667 208.237 28.7C208.803 29.1333 209.32 29.5667 209.787 30C210.253 30.4333 210.62 30.7167 210.887 30.85ZM238.545 35.1C238.178 35.6333 237.678 35.9 237.045 35.9C236.411 35.8667 235.795 35.65 235.195 35.25C234.628 34.85 234.211 34.3667 233.945 33.8C233.711 33.2 233.778 32.6167 234.145 32.05C233.778 32.1167 233.428 31.9167 233.095 31.45C232.795 30.9833 232.528 30.3833 232.295 29.65C232.095 28.9167 231.961 28.1667 231.895 27.4C231.828 26.6 231.845 25.9333 231.945 25.4C232.078 24.8333 232.328 24.5167 232.695 24.45C232.128 24.6167 231.611 24.55 231.145 24.25C230.711 23.9167 230.345 23.45 230.045 22.85C229.778 22.25 229.611 21.6333 229.545 21C229.511 20.3667 229.628 19.8167 229.895 19.35C229.295 19.45 228.678 19.3167 228.045 18.95C227.411 18.55 227.195 18.0333 227.395 17.4C226.728 17.4 226.228 17.1833 225.895 16.75C225.561 16.2833 225.395 15.7667 225.395 15.2C225.361 14.6 225.511 14.0833 225.845 13.65C226.211 13.1833 226.728 12.95 227.395 12.95C227.228 11.95 227.461 11.2333 228.095 10.8C228.761 10.3667 229.428 10.2833 230.095 10.55C230.028 10.2833 230.095 10.0667 230.295 9.9C230.528 9.7 230.828 9.61666 231.195 9.65C230.861 9.28333 230.695 8.85 230.695 8.35C230.695 7.85 230.861 7.41667 231.195 7.05C231.528 6.65 232.028 6.45 232.695 6.45C232.261 6.08333 232.078 5.61666 232.145 5.05C232.245 4.48333 232.495 3.96667 232.895 3.5C233.295 3 233.761 2.66666 234.295 2.5C234.828 2.3 235.328 2.38333 235.795 2.75C235.795 2.21666 236.078 1.81666 236.645 1.55C237.245 1.28333 237.911 1.15 238.645 1.15C239.411 1.15 240.078 1.28333 240.645 1.55C241.245 1.81666 241.545 2.21666 241.545 2.75C242.678 2.65 243.261 2.81667 243.295 3.25C243.328 3.68333 242.778 3.95 241.645 4.05C242.345 4.05 242.845 4.31667 243.145 4.85C243.478 5.38333 243.628 6 243.595 6.7C243.595 7.4 243.411 7.96666 243.045 8.4C243.745 8.4 244.395 8.71667 244.995 9.35C245.595 9.98333 245.828 10.65 245.695 11.35C246.061 10.95 246.545 10.7667 247.145 10.8C247.778 10.8333 248.311 11.0333 248.745 11.4C249.211 11.7667 249.395 12.2833 249.295 12.95C250.028 12.95 250.578 13.2 250.945 13.7C251.311 14.2 251.495 14.8 251.495 15.5C251.495 16.1667 251.311 16.75 250.945 17.25C250.578 17.75 250.028 18 249.295 18C249.328 18.5667 249.061 19.0333 248.495 19.4C247.961 19.7333 247.295 19.95 246.495 20.05C245.695 20.1167 244.995 20.05 244.395 19.85C244.561 20.3833 244.578 20.9833 244.445 21.65C244.311 22.2833 244.061 22.85 243.695 23.35C243.361 23.85 242.928 24.1667 242.395 24.3C242.895 24.3667 243.245 24.55 243.445 24.85C243.645 25.1167 243.711 25.4167 243.645 25.75C244.278 25.6833 244.928 25.8 245.595 26.1C246.261 26.4 246.778 26.8167 247.145 27.35C247.545 27.85 247.628 28.4 247.395 29C247.828 28.6667 248.261 28.5667 248.695 28.7C249.128 28.8333 249.495 29.1 249.795 29.5C250.095 29.8667 250.245 30.2833 250.245 30.75C250.278 31.1833 250.095 31.5667 249.695 31.9C250.228 31.8667 250.628 32.0667 250.895 32.5C251.161 32.9 251.295 33.3667 251.295 33.9C251.295 34.4 251.161 34.85 250.895 35.25C250.628 35.65 250.228 35.85 249.695 35.85C249.695 36.85 249.128 37.4833 247.995 37.75C246.895 38.05 245.495 37.9833 243.795 37.55C242.095 37.1167 240.345 36.3 238.545 35.1ZM265.106 36.1C264.906 36.8 264.539 37.25 264.006 37.45C263.473 37.6833 262.906 37.7167 262.306 37.55C261.739 37.4167 261.273 37.1167 260.906 36.65C260.539 36.1833 260.456 35.6 260.656 34.9C260.289 35.4 259.856 35.6833 259.356 35.75C258.856 35.7833 258.389 35.65 257.956 35.35C257.556 35.05 257.289 34.6667 257.156 34.2C257.056 33.7 257.206 33.1833 257.606 32.65C257.106 32.8833 256.606 32.7833 256.106 32.35C255.606 31.8833 255.189 31.2833 254.856 30.55C254.523 29.7833 254.356 29.0667 254.356 28.4C254.356 27.7333 254.606 27.2833 255.106 27.05C254.506 27.05 254.056 26.7667 253.756 26.2C253.456 25.6333 253.306 24.9667 253.306 24.2C253.306 23.4333 253.456 22.7667 253.756 22.2C254.056 21.6333 254.489 21.35 255.056 21.35C254.156 21.0833 253.623 20.6833 253.456 20.15C253.289 19.6167 253.406 19.1667 253.806 18.8C254.239 18.4333 254.906 18.3833 255.806 18.65C255.506 18.3833 255.406 18 255.506 17.5C255.639 16.9667 255.906 16.4167 256.306 15.85C256.706 15.2833 257.156 14.7833 257.656 14.35C258.156 13.8833 258.639 13.55 259.106 13.35C259.606 13.15 260.006 13.1833 260.306 13.45C260.139 12.8833 260.289 12.3833 260.756 11.95C261.256 11.5167 261.873 11.2 262.606 11C263.339 10.7667 264.023 10.7167 264.656 10.85C265.289 10.95 265.689 11.2833 265.856 11.85C265.889 11.2167 266.256 10.7833 266.956 10.55C267.689 10.2833 268.489 10.1833 269.356 10.25C270.256 10.3167 271.039 10.5333 271.706 10.9C272.373 11.2667 272.673 11.7667 272.606 12.4C272.873 11.7667 273.239 11.4333 273.706 11.4C274.206 11.3333 274.606 11.4833 274.906 11.85C275.239 12.2167 275.289 12.7167 275.056 13.35C275.423 12.9833 275.906 12.9333 276.506 13.2C277.139 13.4333 277.739 13.8333 278.306 14.4C278.906 14.9667 279.323 15.5667 279.556 16.2C279.823 16.8333 279.773 17.3333 279.406 17.7C279.906 17.6 280.356 17.7667 280.756 18.2C281.189 18.6333 281.523 19.2 281.756 19.9C282.023 20.6 282.173 21.3333 282.206 22.1C282.239 22.8333 282.156 23.4833 281.956 24.05C281.756 24.6167 281.389 24.95 280.856 25.05C281.823 25.4833 282.256 25.8167 282.156 26.05C282.056 26.25 281.523 26.1333 280.556 25.7C280.556 26.1333 280.273 26.4667 279.706 26.7C279.173 26.9 278.556 27 277.856 27C277.156 27 276.523 26.9 275.956 26.7C275.423 26.4667 275.156 26.1333 275.156 25.7C275.156 26.2667 274.906 26.7 274.406 27C273.906 27.2667 273.323 27.4167 272.656 27.45C272.023 27.45 271.456 27.3167 270.956 27.05C270.456 26.75 270.206 26.3333 270.206 25.8C270.239 26.3667 269.956 26.8333 269.356 27.2C268.789 27.5333 268.139 27.7333 267.406 27.8C267.739 28.2 268.006 28.6333 268.206 29.1C268.439 29.5333 268.589 29.9333 268.656 30.3C268.989 29.9333 269.489 29.6167 270.156 29.35C270.823 29.0833 271.506 28.9167 272.206 28.85C272.906 28.7833 273.523 28.8333 274.056 29C274.623 29.1333 274.956 29.4333 275.056 29.9C275.056 29.3333 275.273 28.9 275.706 28.6C276.173 28.3 276.706 28.15 277.306 28.15C277.906 28.15 278.423 28.3 278.856 28.6C279.323 28.9 279.556 29.3333 279.556 29.9C280.223 30.0333 280.623 30.3167 280.756 30.75C280.889 31.15 280.806 31.5167 280.506 31.85C280.206 32.15 279.739 32.2333 279.106 32.1C279.406 32.5333 279.456 32.9833 279.256 33.45C279.056 33.8833 278.723 34.2667 278.256 34.6C277.823 34.9 277.356 35.0667 276.856 35.1C276.389 35.1333 276.006 34.95 275.706 34.55C275.906 35.1833 275.806 35.7333 275.406 36.2C275.039 36.6667 274.539 37 273.906 37.2C273.273 37.4 272.656 37.4 272.056 37.2C271.489 37.0333 271.106 36.6333 270.906 36C270.973 36.9 270.723 37.5167 270.156 37.85C269.623 38.1833 268.889 38.2 267.956 37.9C267.056 37.6333 266.106 37.0333 265.106 36.1ZM267.156 21.95C267.156 21.2833 267.339 20.9167 267.706 20.85C268.073 20.75 268.323 20.95 268.456 21.45C268.556 21.15 268.756 20.8667 269.056 20.6C269.356 20.3333 269.673 20.15 270.006 20.05C269.606 19.75 269.273 19.3167 269.006 18.75C268.739 18.1833 268.656 17.6833 268.756 17.25C268.456 17.4167 268.089 17.5167 267.656 17.55C267.256 17.5833 266.906 17.5333 266.606 17.4C266.706 17.7667 266.689 18.2 266.556 18.7C266.423 19.2 266.206 19.65 265.906 20.05C265.639 20.45 265.323 20.6667 264.956 20.7C265.389 20.8 265.706 21.0333 265.906 21.4C266.139 21.7667 266.556 21.95 267.156 21.95Z" fill="#9ED2BE"/>
</g>
<defs>
<filter id="filter0_i_185_128" x="0.0917969" y="0.549805" width="283.595" height="39.1811" filterUnits="userSpaceOnUse" color-interpolation-filters="sRGB">
<feFlood flood-opacity="0" result="BackgroundImageFix"/>
<feBlend mode="normal" in="SourceGraphic" in2="BackgroundImageFix" result="shape"/>
<feColorMatrix in="SourceAlpha" type="matrix" values="0 0 0 0 0 0 0 0 0 0 0 0 0 0 0 0 0 0 127 0" result="hardAlpha"/>
<feOffset dx="1.72603" dy="1.72603"/>
<feGaussianBlur stdDeviation="0.690411"/>
<feComposite in2="hardAlpha" operator="arithmetic" k2="-1" k3="1"/>
<feColorMatrix type="matrix" values="0 0 0 0 0 0 0 0 0 0 0 0 0 0 0 0 0 0 0.25 0"/>
<feBlend mode="normal" in2="shape" result="effect1_innerShadow_185_128"/>
</filter>
</defs>
</svg>
