<svg width="49" height="16" viewBox="0 0 49 16" fill="none" xmlns="http://www.w3.org/2000/svg">
<rect width="49" height="16" rx="8" fill="#9CB8CD"/>
<path d="M5.27133 9.74H13.6513V10.82H5.27133V9.74ZM8.78133 7.69H10.1113V9.99H8.78133V7.69ZM6.14133 3.31H12.7313V7.86H6.14133V3.31ZM11.4313 4.37H7.45133V6.81H11.4313V4.37ZM16.7105 3.43H17.8005V4C17.8005 5.66 16.9405 7.16 15.1605 7.7L14.4905 6.66C16.0405 6.21 16.7105 5.09 16.7105 4V3.43ZM16.9805 3.43H18.0705V4C18.0705 5.03 18.7405 6.08 20.2405 6.51L19.5905 7.54C17.8405 7.03 16.9805 5.6 16.9805 4V3.43ZM14.8505 3.13H19.8905V4.18H14.8505V3.13ZM20.8205 2.63H22.1605V7.65H20.8205V2.63ZM16.0005 8.05H17.3105V8.89H20.8405V8.05H22.1605V11.79H16.0005V8.05ZM17.3105 9.92V10.73H20.8405V9.92H17.3105ZM26.4202 3.5H30.8502V9.64H26.4202V3.5ZM29.5402 4.54H27.7302V8.59H29.5402V4.54ZM32.0602 2.63H33.4002V11.89H32.0602V2.63ZM33.1002 6.12H34.7402V7.22H33.1002V6.12ZM41.2995 2.63H42.6295V7.79H41.2995V2.63ZM42.2595 4.64H43.8595V5.73H42.2595V4.64ZM38.6395 3.16H40.0595C40.0595 5.62 38.5195 7.29 35.7595 8.01L35.2395 6.96C37.5095 6.39 38.6395 5.21 38.6395 3.82V3.16ZM35.6795 3.16H39.4395V4.21H35.6795V3.16ZM36.6195 8.16H42.6295V11.79H36.6195V8.16ZM41.3195 9.21H37.9295V10.74H41.3195V9.21Z" fill="white"/>
</svg>
