<svg width="49" height="16" viewBox="0 0 49 16" fill="none" xmlns="http://www.w3.org/2000/svg">
<rect width="49" height="16" rx="8" fill="#FA7070"/>
<path d="M9.87094 10.74H18.2509V11.82H9.87094V10.74ZM13.3809 8.69H14.7109V10.99H13.3809V8.69ZM10.7409 4.31H17.3309V8.86H10.7409V4.31ZM16.0309 5.37H12.0509V7.81H16.0309V5.37ZM21.3102 4.43H22.4002V5C22.4002 6.66 21.5402 8.16 19.7602 8.7L19.0902 7.66C20.6402 7.21 21.3102 6.09 21.3102 5V4.43ZM21.5802 4.43H22.6702V5C22.6702 6.03 23.3402 7.08 24.8402 7.51L24.1902 8.54C22.4402 8.03 21.5802 6.6 21.5802 5V4.43ZM19.4502 4.13H24.4902V5.18H19.4502V4.13ZM25.4202 3.63H26.7602V8.65H25.4202V3.63ZM20.6002 9.05H21.9102V9.89H25.4402V9.05H26.7602V12.79H20.6002V9.05ZM21.9102 10.92V11.73H25.4402V10.92H21.9102ZM34.2598 8.28H35.5898V9.91H34.2598V8.28ZM30.7398 7.84H39.1098V8.89H30.7398V7.84ZM34.9098 9.55C36.9098 9.55 38.1198 10.15 38.1198 11.22C38.1198 12.29 36.9098 12.89 34.9098 12.89C32.8998 12.89 31.6898 12.29 31.6898 11.22C31.6898 10.15 32.8998 9.55 34.9098 9.55ZM34.9098 10.55C33.6698 10.55 33.0398 10.76 33.0398 11.22C33.0398 11.67 33.6698 11.89 34.9098 11.89C36.1498 11.89 36.7798 11.67 36.7798 11.22C36.7798 10.76 36.1498 10.55 34.9098 10.55ZM34.0098 4.5H35.1898V4.73C35.1898 6.12 33.9398 7.26 31.5498 7.48L31.0898 6.44C33.1198 6.27 34.0098 5.45 34.0098 4.73V4.5ZM34.6598 4.5H35.8398V4.73C35.8398 5.46 36.7198 6.27 38.7598 6.44L38.2998 7.48C35.9198 7.26 34.6598 6.13 34.6598 4.73V4.5ZM31.4998 4.01H38.3598V5.06H31.4998V4.01Z" fill="white"/>
</svg>
