<svg width="296" height="43" viewBox="0 0 296 43" fill="none" xmlns="http://www.w3.org/2000/svg">
<rect width="296" height="43" rx="5" fill="#FA7070"/>
<path d="M130.542 13.96H132.552V24.085H130.542V13.96ZM123.297 26.005H132.897V27.595H123.297V26.005ZM123.297 23.11H125.292V26.83H123.297V23.11ZM124.257 14.71H125.907V16.06C125.907 18.775 124.662 21.28 121.962 22.225L120.957 20.635C123.282 19.84 124.257 17.905 124.257 16.06V14.71ZM124.662 14.71H126.297V16.06C126.297 17.875 127.242 19.66 129.522 20.395L128.502 21.985C125.877 21.1 124.662 18.745 124.662 16.06V14.71ZM137.921 16.375H139.526V16.885C139.526 19.3 138.296 21.475 135.641 22.24L134.711 20.68C136.946 20.05 137.921 18.46 137.921 16.885V16.375ZM138.296 16.375H139.916V16.885C139.916 18.31 140.906 19.765 143.141 20.35L142.241 21.895C139.571 21.19 138.296 19.165 138.296 16.885V16.375ZM135.191 15.385H142.646V16.945H135.191V15.385ZM137.921 13.9H139.916V16H137.921V13.9ZM142.256 17.65H144.911V19.255H142.256V17.65ZM144.431 13.945H146.426V22.33H144.431V13.945ZM141.716 22.57C144.656 22.57 146.471 23.53 146.471 25.195C146.471 26.86 144.656 27.835 141.716 27.835C138.776 27.835 136.961 26.86 136.961 25.195C136.961 23.53 138.776 22.57 141.716 22.57ZM141.716 24.085C139.901 24.085 138.956 24.445 138.956 25.195C138.956 25.945 139.901 26.32 141.716 26.32C143.546 26.32 144.491 25.945 144.491 25.195C144.491 24.445 143.546 24.085 141.716 24.085ZM157.51 13.945H159.49V27.835H157.51V13.945ZM159.04 19.36H161.5V21.025H159.04V19.36ZM148.54 16H156.625V17.59H148.54V16ZM152.605 18.37C154.63 18.37 156.13 19.75 156.13 21.685C156.13 23.62 154.63 25 152.605 25C150.58 25 149.08 23.62 149.08 21.685C149.08 19.75 150.58 18.37 152.605 18.37ZM152.605 19.99C151.66 19.99 150.985 20.62 150.985 21.685C150.985 22.75 151.66 23.38 152.605 23.38C153.55 23.38 154.225 22.75 154.225 21.685C154.225 20.62 153.55 19.99 152.605 19.99ZM151.6 14.17H153.595V16.6H151.6V14.17ZM171.969 13.945H173.979V27.835H171.969V13.945ZM167.874 15.385H169.854C169.854 19.63 168.414 23.11 163.479 25.495L162.444 23.905C166.434 21.985 167.874 19.465 167.874 15.745V15.385ZM163.179 15.385H168.819V16.96H163.179V15.385Z" fill="white"/>
</svg>
