<svg width="164" height="27" viewBox="0 0 164 27" fill="none" xmlns="http://www.w3.org/2000/svg">
<path d="M52.4051 8.61H53.6051V22.17H52.4051V8.61ZM50.1101 14.04H52.7201V15.075H50.1101V14.04ZM49.3301 8.91H50.5001V21.48H49.3301V8.91ZM42.5801 17.79H43.4651C45.4451 17.79 46.7951 17.715 48.3701 17.385L48.4901 18.42C46.8701 18.765 45.5051 18.825 43.4651 18.825H42.5801V17.79ZM42.5801 10.26H47.6201V11.28H43.8101V18.255H42.5801V10.26ZM65.7689 8.61H67.0139V22.17H65.7689V8.61ZM61.7939 10.065H63.0239C63.0239 13.995 61.2539 17.43 56.7239 19.65L56.0639 18.645C59.9789 16.755 61.7939 13.875 61.7939 10.275V10.065ZM56.6789 10.065H62.3339V11.085H56.6789V10.065ZM79.1575 15.39H80.4025V17.76H79.1575V15.39ZM73.6525 14.955H85.9075V15.96H73.6525V14.955ZM79.7725 17.385C82.6825 17.385 84.4225 18.24 84.4225 19.77C84.4225 21.285 82.6825 22.14 79.7725 22.14C76.8625 22.14 75.1225 21.285 75.1225 19.77C75.1225 18.24 76.8625 17.385 79.7725 17.385ZM79.7725 18.345C77.6575 18.345 76.3825 18.855 76.3825 19.77C76.3825 20.67 77.6575 21.18 79.7725 21.18C81.9025 21.18 83.1625 20.67 83.1625 19.77C83.1625 18.855 81.9025 18.345 79.7725 18.345ZM78.9775 9.72H80.0875V10.125C80.0875 12.315 77.5975 13.785 74.7925 14.13L74.3425 13.14C76.7725 12.885 78.9775 11.67 78.9775 10.125V9.72ZM79.5025 9.72H80.5975V10.125C80.5975 11.67 82.8025 12.885 85.2325 13.14L84.7825 14.13C81.9775 13.785 79.5025 12.315 79.5025 10.125V9.72ZM74.7775 9.225H84.8125V10.23H74.7775V9.225ZM97.3213 8.625H98.5813V18.525H97.3213V8.625ZM89.8663 20.85H98.9863V21.87H89.8663V20.85ZM89.8663 17.505H91.0963V21.195H89.8663V17.505ZM91.3063 9.555C93.3313 9.555 94.8313 10.935 94.8313 12.9C94.8313 14.85 93.3313 16.245 91.3063 16.245C89.2813 16.245 87.7663 14.85 87.7663 12.9C87.7663 10.935 89.2813 9.555 91.3063 9.555ZM91.3063 10.635C89.9863 10.635 88.9813 11.565 88.9813 12.9C88.9813 14.22 89.9863 15.15 91.3063 15.15C92.6263 15.15 93.6313 14.22 93.6313 12.9C93.6313 11.565 92.6263 10.635 91.3063 10.635ZM108.61 10.83H109.63V11.415C109.63 13.74 108.1 15.63 105.835 16.365L105.235 15.39C107.245 14.775 108.61 13.2 108.61 11.415V10.83ZM108.835 10.83H109.855V11.415C109.855 13.065 111.175 14.55 113.17 15.135L112.585 16.125C110.32 15.42 108.835 13.59 108.835 11.415V10.83ZM105.61 10.2H112.84V11.205H105.61V10.2ZM108.61 8.55H109.855V10.605H108.61V8.55ZM114.505 8.61H115.75V16.635H114.505V8.61ZM115.405 12.03H117.76V13.08H115.405V12.03ZM107.23 17.265H115.75V21.99H107.23V17.265ZM114.535 18.255H108.445V20.985H114.535V18.255ZM125.139 11.625H129.234V12.66H125.139V11.625ZM125.139 15.915H129.234V16.95H125.139V15.915ZM122.649 9.645C124.614 9.645 126.024 11.49 126.024 14.37C126.024 17.265 124.614 19.11 122.649 19.11C120.669 19.11 119.274 17.265 119.274 14.37C119.274 11.49 120.669 9.645 122.649 9.645ZM122.649 10.77C121.344 10.77 120.444 12.18 120.444 14.37C120.444 16.575 121.344 18.015 122.649 18.015C123.954 18.015 124.854 16.575 124.854 14.37C124.854 12.18 123.954 10.77 122.649 10.77ZM128.964 8.595H130.194V22.185H128.964V8.595ZM146.657 8.625H147.917V18.555H146.657V8.625ZM139.202 20.85H148.322V21.87H139.202V20.85ZM139.202 17.64H140.432V21.33H139.202V17.64ZM140.327 9.36H141.362V10.74C141.362 13.38 139.862 15.69 137.582 16.62L136.937 15.615C138.977 14.82 140.327 12.84 140.327 10.74V9.36ZM140.552 9.36H141.572V10.74C141.572 12.78 142.937 14.625 144.962 15.36L144.302 16.365C142.052 15.495 140.552 13.32 140.552 10.74V9.36ZM153.976 10.92H154.996V11.505C154.996 13.86 153.496 15.84 151.231 16.605L150.631 15.63C152.626 14.985 153.976 13.335 153.976 11.505V10.92ZM154.201 10.92H155.221V11.505C155.221 13.185 156.616 14.7 158.611 15.285L158.041 16.26C155.761 15.555 154.201 13.725 154.201 11.505V10.92ZM150.976 10.245H158.206V11.25H150.976V10.245ZM153.976 8.55H155.221V10.605H153.976V8.55ZM157.801 12.465H160.861V13.5H157.801V12.465ZM160.501 8.61H161.746V16.815H160.501V8.61ZM157.291 17.175C160.096 17.175 161.806 18.09 161.806 19.665C161.806 21.225 160.096 22.14 157.291 22.14C154.471 22.14 152.761 21.225 152.761 19.665C152.761 18.09 154.471 17.175 157.291 17.175ZM157.291 18.15C155.236 18.15 154.006 18.705 154.006 19.665C154.006 20.61 155.236 21.165 157.291 21.165C159.331 21.165 160.576 20.61 160.576 19.665C160.576 18.705 159.331 18.15 157.291 18.15Z" fill="black"/>
<path fill-rule="evenodd" clip-rule="evenodd" d="M24.7501 9.42409C24.748 9.64409 24.6587 9.85427 24.5017 10.0085C24.3448 10.1627 24.1331 10.2483 23.9131 10.2465H18.3308C18.2218 10.2475 18.1136 10.2271 18.0125 10.1863C17.9113 10.1455 17.8192 10.0852 17.7414 10.0089C17.6636 9.9325 17.6016 9.84155 17.5589 9.74122C17.5162 9.64088 17.4937 9.53312 17.4927 9.42409C17.4927 8.96959 17.8684 8.60059 18.3308 8.60059H23.9131C24.3743 8.60059 24.7501 8.96959 24.7501 9.42409ZM24.7501 14.3617C24.748 14.5817 24.6587 14.7919 24.5017 14.9461C24.3448 15.1003 24.1331 15.1859 23.9131 15.1841H19.4468C19.2268 15.1859 19.0151 15.1003 18.8581 14.9461C18.7012 14.7919 18.6119 14.5817 18.6098 14.3617C18.6098 13.9072 18.9844 13.5382 19.4468 13.5382H23.9131C24.3743 13.5382 24.7501 13.9072 24.7501 14.3617Z" fill="black"/>
<path d="M14.1605 9.26775L14.57 9.66938C16.2777 11.3479 17.1327 12.1883 17.1316 13.0972C17.1316 13.3954 17.0697 13.689 16.9505 13.9624C16.5849 14.7983 15.4621 15.237 13.2177 16.1156L13.0546 16.1786C12.419 16.4272 12.1006 16.5521 11.8441 16.7524C11.6502 16.9035 11.4829 17.0861 11.3491 17.2924C11.1725 17.5624 11.0791 17.8875 10.8912 18.5344C10.601 19.539 10.457 20.0419 10.1476 20.2635C9.91647 20.4295 9.63125 20.5022 9.34886 20.4671C8.96861 20.4221 8.59286 20.052 7.84136 19.314L6.68711 18.1778L3.67999 21.1342C3.52156 21.2888 3.309 21.3753 3.08768 21.3753C2.86635 21.3753 2.65379 21.2888 2.49536 21.1342C2.4177 21.0585 2.35599 20.9679 2.31385 20.868C2.27171 20.768 2.25 20.6606 2.25 20.5521C2.25 20.4436 2.27171 20.3362 2.31385 20.2362C2.35599 20.1362 2.4177 20.0456 2.49536 19.9699L5.49124 17.0033L4.34711 15.8783C3.59674 15.1414 3.22099 14.7724 3.17374 14.3978C3.13862 14.1194 3.21282 13.8383 3.38074 13.6136C3.60799 13.3099 4.11874 13.167 5.14024 12.8824C5.79949 12.699 6.12911 12.6068 6.40474 12.4335C6.61367 12.3029 6.79924 12.1383 6.95374 11.9464C7.15736 11.6944 7.28449 11.3816 7.53761 10.7561L7.60174 10.5964C8.49499 8.39137 8.94161 7.28775 9.79324 6.92887C10.0711 6.81075 10.3704 6.75 10.6719 6.75C11.5989 6.75 12.4527 7.58812 14.1605 9.26775Z" fill="black"/>
<path fill-rule="evenodd" clip-rule="evenodd" d="M24.7498 19.2993C24.7478 19.5193 24.6584 19.7295 24.5015 19.8837C24.3446 20.0379 24.1328 20.1235 23.9128 20.1217H13.8643C13.6443 20.1235 13.4326 20.0379 13.2757 19.8837C13.1187 19.7295 13.0294 19.5193 13.0273 19.2993C13.0273 18.8448 13.402 18.4758 13.8643 18.4758H23.9128C24.3741 18.4758 24.7498 18.8448 24.7498 19.2993Z" fill="black"/>
</svg>
