<svg width="37" height="37" viewBox="0 0 37 37" fill="none" xmlns="http://www.w3.org/2000/svg">
<path d="M17.4036 9.7025L9.69526 17.4108C9.5549 17.5574 9.44488 17.7303 9.37151 17.9196C9.21731 18.2949 9.21731 18.7159 9.37151 19.0912C9.44488 19.2805 9.5549 19.4534 9.69526 19.6L17.4036 27.3083C17.5473 27.4521 17.718 27.5661 17.9058 27.6439C18.0936 27.7217 18.2949 27.7617 18.4982 27.7617C18.9087 27.7617 19.3025 27.5986 19.5928 27.3083C19.8831 27.018 20.0461 26.6243 20.0461 26.2137C20.0461 25.8032 19.8831 25.4095 19.5928 25.1192L14.5053 20.0471H26.2065C26.6154 20.0471 27.0075 19.8847 27.2966 19.5955C27.5857 19.3064 27.7482 18.9143 27.7482 18.5054C27.7482 18.0965 27.5857 17.7044 27.2966 17.4153C27.0075 17.1262 26.6154 16.9637 26.2065 16.9637H14.5053L19.5928 11.8917C19.7373 11.7483 19.8519 11.5778 19.9302 11.39C20.0085 11.2021 20.0488 11.0006 20.0488 10.7971C20.0488 10.5936 20.0085 10.3921 19.9302 10.2042C19.8519 10.0163 19.7373 9.84581 19.5928 9.7025C19.4494 9.558 19.2789 9.4433 19.0911 9.36504C18.9032 9.28677 18.7017 9.24647 18.4982 9.24647C18.2947 9.24647 18.0931 9.28677 17.9053 9.36504C17.7174 9.4433 17.5469 9.558 17.4036 9.7025Z" fill="black"/>
</svg>
