<svg width="298" height="54" viewBox="0 0 298 54" fill="none" xmlns="http://www.w3.org/2000/svg">
<rect x="0.5" y="0.5" width="297" height="52.834" rx="17.0069" fill="#F0F0F0" stroke="#A9AFB3"/>
<path d="M106.547 20.45H107.709V30.096H106.547V20.45ZM104.405 23.796H107.037V24.748H104.405V23.796ZM104.405 26.47H107.037V27.408H104.405V26.47ZM97.3214 21.976H104.405V22.914H97.3214V21.976ZM100.905 23.614C102.585 23.614 103.761 24.58 103.761 26.036C103.761 27.478 102.585 28.458 100.905 28.458C99.2114 28.458 98.0354 27.478 98.0354 26.036C98.0354 24.58 99.2114 23.614 100.905 23.614ZM100.905 24.524C99.8554 24.524 99.1414 25.14 99.1414 26.036C99.1414 26.932 99.8554 27.534 100.905 27.534C101.955 27.534 102.669 26.932 102.669 26.036C102.669 25.14 101.955 24.524 100.905 24.524ZM100.331 20.422H101.493V22.578H100.331V20.422ZM99.5754 31.86H108.017V32.812H99.5754V31.86ZM99.5754 29.27H100.737V32.322H99.5754V29.27ZM119.86 20.436H120.966V33.092H119.86V20.436ZM117.858 25.532H120.294V26.512H117.858V25.532ZM117.102 20.702H118.194V32.462H117.102V20.702ZM112.79 22.396H113.7V23.852C113.7 26.89 112.706 29.326 110.76 30.488L110.046 29.592C111.866 28.584 112.79 26.428 112.79 23.852V22.396ZM113 22.396H113.91V23.852C113.91 26.176 114.848 28.234 116.626 29.144L115.94 30.04C114.008 28.976 113 26.638 113 23.852V22.396ZM110.34 21.92H116.22V22.886H110.34V21.92ZM131.133 21.024C133.023 21.024 134.367 22.074 134.367 23.628C134.367 25.168 133.023 26.246 131.133 26.246C129.257 26.246 127.913 25.168 127.913 23.628C127.913 22.074 129.257 21.024 131.133 21.024ZM131.133 21.99C129.901 21.99 129.019 22.662 129.019 23.628C129.019 24.608 129.901 25.266 131.133 25.266C132.365 25.266 133.247 24.608 133.247 23.628C133.247 22.662 132.365 21.99 131.133 21.99ZM130.615 27.646H131.777V32.7H130.615V27.646ZM136.215 20.436H137.363V33.106H136.215V20.436ZM127.129 28.276L126.975 27.296C129.327 27.296 132.533 27.268 135.319 26.848L135.403 27.716C132.547 28.234 129.439 28.276 127.129 28.276ZM149.08 20.436H150.242V33.092H149.08V20.436ZM143.382 23.446H144.32V24.524C144.32 27.226 142.794 29.676 140.764 30.656L140.106 29.76C141.982 28.892 143.382 26.736 143.382 24.524V23.446ZM143.606 23.446H144.53V24.524C144.53 26.638 145.972 28.696 147.862 29.522L147.204 30.432C145.16 29.508 143.606 27.142 143.606 24.524V23.446ZM140.456 22.634H147.428V23.572H140.456V22.634ZM143.382 20.66H144.544V23.152H143.382V20.66ZM152.761 30.572H164.227V31.538H152.761V30.572ZM157.885 27.856H159.047V30.978H157.885V27.856ZM154.147 21.374H162.813V25.21H155.337V27.744H154.189V24.272H161.665V22.312H154.147V21.374ZM154.189 27.254H163.107V28.206H154.189V27.254ZM176.073 22.718H179.307V23.684H176.073V22.718ZM178.817 20.436H179.979V26.96H178.817V20.436ZM171.831 27.618H179.979V30.642H173.007V32.56H171.873V29.774H178.831V28.542H171.831V27.618ZM171.873 32H180.455V32.924H171.873V32ZM172.727 20.828H173.679V22.018C173.679 24.356 172.279 26.246 170.165 27.002L169.563 26.078C171.467 25.434 172.727 23.852 172.727 22.018V20.828ZM172.923 20.828H173.861V22.018C173.861 23.67 175.135 25.196 176.969 25.798L176.367 26.708C174.323 25.98 172.923 24.16 172.923 22.018V20.828ZM189.204 23.712H192.06V24.678H189.204V23.712ZM191.696 20.436H192.858V27.982H191.696V20.436ZM188.7 28.36C191.304 28.36 192.914 29.242 192.914 30.726C192.914 32.224 191.304 33.078 188.7 33.078C186.082 33.078 184.472 32.224 184.472 30.726C184.472 29.242 186.082 28.36 188.7 28.36ZM188.7 29.27C186.796 29.27 185.634 29.802 185.634 30.726C185.634 31.636 186.796 32.168 188.7 32.168C190.604 32.168 191.766 31.636 191.766 30.726C191.766 29.802 190.604 29.27 188.7 29.27ZM185.676 21.71H186.628V22.732C186.628 25.07 185.2 27.072 183.1 27.856L182.498 26.932C184.374 26.246 185.676 24.552 185.676 22.732V21.71ZM185.9 21.71H186.838V22.732C186.838 24.37 188.07 25.938 189.904 26.582L189.316 27.506C187.258 26.764 185.9 24.86 185.9 22.732V21.71ZM182.848 21.36H189.61V22.312H182.848V21.36ZM203.903 20.436H205.065V33.092H203.903V20.436ZM204.785 25.63H207.137V26.61H204.785V25.63ZM195.265 22.452H202.727V23.404H195.265V22.452ZM199.045 24.454C200.837 24.454 202.125 25.658 202.125 27.366C202.125 29.074 200.837 30.278 199.045 30.278C197.267 30.278 195.965 29.074 195.965 27.366C195.965 25.658 197.267 24.454 199.045 24.454ZM199.045 25.42C197.897 25.42 197.071 26.218 197.071 27.366C197.071 28.5 197.897 29.312 199.045 29.312C200.193 29.312 201.019 28.5 201.019 27.366C201.019 26.218 200.193 25.42 199.045 25.42ZM198.443 20.59H199.605V22.886H198.443V20.59ZM217.426 20.436H218.588V33.092H217.426V20.436ZM213.716 21.794H214.864C214.864 25.462 213.212 28.668 208.984 30.74L208.368 29.802C212.022 28.038 213.716 25.35 213.716 21.99V21.794ZM208.942 21.794H214.22V22.746H208.942V21.794Z" fill="black"/>
<g clip-path="url(#clip0_569_2451)">
<path fill-rule="evenodd" clip-rule="evenodd" d="M64.6 20.2216V19H63.4V20.2216C61.5448 20.3646 59.8019 21.166 58.4857 22.4813C57.1696 23.7965 56.367 25.5389 56.2228 27.394H55V28.594H56.2228C56.3665 30.4503 57.1686 32.1942 58.4846 33.5113C59.8006 34.8284 61.5438 35.632 63.4 35.7772V37H64.6V35.7772C66.4562 35.632 68.1994 34.8284 69.5154 33.5113C70.8314 32.1942 71.6335 30.4503 71.7772 28.594H73V27.394H71.7772C71.633 25.5389 70.8304 23.7965 69.5143 22.4813C68.1981 21.166 66.4552 20.3646 64.6 20.2216ZM64.6 22.6V27.394H69.4V28.594H64.6V33.4H63.4V28.594H58.6V27.394H63.4V22.6H64.6Z" fill="black"/>
</g>
<defs>
<clipPath id="clip0_569_2451">
<rect width="18" height="18" fill="white" transform="translate(55 19)"/>
</clipPath>
</defs>
</svg>





