<svg width="296" height="43" viewBox="0 0 296 43" fill="none" xmlns="http://www.w3.org/2000/svg">
<rect width="296" height="43" rx="5" fill="#FA7070"/>
<path d="M127.711 14.5H136.516V16.075H127.711V14.5ZM126.181 18.835H138.751V20.41H126.181V18.835ZM135.316 14.5H137.281V15.445C137.281 16.435 137.281 17.695 136.921 19.3L134.956 19.12C135.316 17.545 135.316 16.42 135.316 15.445V14.5ZM127.576 21.355H137.236V25.27H129.586V26.68H127.591V23.8H135.256V22.9H127.576V21.355ZM127.591 26.2H137.596V27.745H127.591V26.2ZM145.956 14.935H147.471V16.51C147.471 18.895 146.601 21.205 144.381 22.165L143.361 20.695C145.236 19.87 145.956 18.13 145.956 16.51V14.935ZM146.436 14.935H147.951V16.51C147.951 18.1 148.626 19.915 150.561 20.785L149.706 22.375C147.276 21.37 146.436 18.865 146.436 16.51V14.935ZM151.476 14.935H152.976V16.51C152.976 18.895 152.136 21.385 149.706 22.375L148.866 20.785C150.786 19.93 151.476 18.13 151.476 16.51V14.935ZM151.971 14.935H153.486V16.51C153.486 18.19 154.191 19.885 156.081 20.695L155.046 22.165C152.826 21.22 151.971 18.955 151.971 16.51V14.935ZM143.436 24.505H156.006V26.125H143.436V24.505ZM166.805 13.945H168.815V27.835H166.805V13.945ZM162.71 15.385H164.69C164.69 19.63 163.25 23.11 158.315 25.495L157.28 23.905C161.27 21.985 162.71 19.465 162.71 15.745V15.385ZM158.015 15.385H163.655V16.96H158.015V15.385Z" fill="white"/>
</svg>
