<svg width="83" height="20" viewBox="0 0 83 20" fill="none" xmlns="http://www.w3.org/2000/svg">
<rect width="82.6301" height="19.1162" rx="9.55811" fill="#9ED2BE"/>
<path d="M18.7828 4.76711H19.6228V13.8271H18.7828V4.76711ZM19.4228 8.33711H21.1028V9.03711H19.4228V8.33711ZM13.0528 10.8771H13.7628C15.4328 10.8771 16.6028 10.8171 17.9528 10.5671L18.0428 11.2671C16.6528 11.5271 15.4628 11.5771 13.7628 11.5771H13.0528V10.8771ZM13.0528 5.64711H17.2528V6.32711H13.8728V11.1871H13.0528V5.64711ZM24.2521 5.55711H24.9321V7.17711C24.9321 9.25711 23.8121 11.1871 22.3321 11.9371L21.8221 11.2571C23.1621 10.6171 24.2521 8.88711 24.2521 7.17711V5.55711ZM24.3921 5.55711H25.0721V7.17711C25.0721 8.82711 26.1521 10.4871 27.4921 11.1071L26.9921 11.7671C25.5221 11.0471 24.3921 9.18711 24.3921 7.17711V5.55711ZM28.4321 4.76711H29.2621V13.8271H28.4321V4.76711ZM36.2638 5.55711H36.9438V7.17711C36.9438 9.25711 35.8238 11.1871 34.3438 11.9371L33.8338 11.2571C35.1738 10.6171 36.2638 8.88711 36.2638 7.17711V5.55711ZM36.4038 5.55711H37.0838V7.17711C37.0838 8.82711 38.1638 10.4871 39.5038 11.1071L39.0038 11.7671C37.5338 11.0471 36.4038 9.18711 36.4038 7.17711V5.55711ZM40.4438 4.76711H41.2738V13.8271H40.4438V4.76711ZM44.113 8.99711H50.323V9.67711H44.113V8.99711ZM43.083 11.9871H51.273V12.6871H43.083V11.9871ZM46.743 9.28711H47.573V12.2671H46.743V9.28711ZM44.113 5.49711H50.233V6.17711H44.943V9.29711H44.113V5.49711ZM58.4022 4.77711H59.2322V13.8171H58.4022V4.77711ZM59.0322 8.48711H60.7122V9.18711H59.0322V8.48711ZM52.2322 6.21711H57.5622V6.89711H52.2322V6.21711ZM54.9322 7.64711C56.2122 7.64711 57.1322 8.50711 57.1322 9.72711C57.1322 10.9471 56.2122 11.8071 54.9322 11.8071C53.6622 11.8071 52.7322 10.9471 52.7322 9.72711C52.7322 8.50711 53.6622 7.64711 54.9322 7.64711ZM54.9322 8.33711C54.1122 8.33711 53.5222 8.90711 53.5222 9.72711C53.5222 10.5371 54.1122 11.1171 54.9322 11.1171C55.7522 11.1171 56.3422 10.5371 56.3422 9.72711C56.3422 8.90711 55.7522 8.33711 54.9322 8.33711ZM54.5022 4.88711H55.3322V6.52711H54.5022V4.88711ZM68.0614 4.77711H68.8914V13.8171H68.0614V4.77711ZM65.4114 5.74711H66.2314C66.2314 8.36711 65.0514 10.6571 62.0314 12.1371L61.5914 11.4671C64.2014 10.2071 65.4114 8.28711 65.4114 5.88711V5.74711ZM62.0014 5.74711H65.7714V6.42711H62.0014V5.74711Z" fill="black"/>
</svg>
