<svg width="298" height="54" viewBox="0 0 298 54" fill="none" xmlns="http://www.w3.org/2000/svg">
<rect x="0.5" y="0.5" width="297" height="52.834" rx="17.0069" fill="#9ED2BE" stroke="#A9AFB3"/>
<path d="M132.696 20.422H133.844V33.106H132.696V20.422ZM129.966 25.042H133.032V25.994H129.966V25.042ZM126.648 22.242H127.586V24.132C127.586 26.862 126.018 29.564 124.016 30.6L123.33 29.676C125.15 28.78 126.648 26.386 126.648 24.132V22.242ZM126.886 22.242H127.81V24.132C127.81 26.246 129.28 28.556 131.114 29.424L130.428 30.334C128.426 29.34 126.886 26.736 126.886 24.132V22.242ZM123.792 21.724H130.68V22.69H123.792V21.724ZM139.429 21.794H140.381V22.816C140.381 25.14 138.981 27.086 136.853 27.856L136.265 26.932C138.169 26.26 139.429 24.622 139.429 22.816V21.794ZM139.639 21.794H140.591V22.802C140.591 24.454 141.795 25.938 143.657 26.554L143.097 27.464C140.983 26.764 139.639 24.958 139.639 22.802V21.794ZM136.615 21.374H143.377V22.326H136.615V21.374ZM144.973 20.436H146.135V28.066H144.973V20.436ZM145.813 23.642H148.011V24.622H145.813V23.642ZM142.103 28.402C144.679 28.402 146.261 29.256 146.261 30.726C146.261 32.21 144.679 33.064 142.103 33.064C139.527 33.064 137.945 32.21 137.945 30.726C137.945 29.256 139.527 28.402 142.103 28.402ZM142.103 29.34C140.227 29.34 139.079 29.844 139.079 30.726C139.079 31.622 140.227 32.154 142.103 32.154C143.979 32.154 145.127 31.622 145.127 30.726C145.127 29.844 143.979 29.34 142.103 29.34ZM157.768 20.436H158.93V33.092H157.768V20.436ZM158.65 25.63H161.002V26.61H158.65V25.63ZM149.13 22.452H156.592V23.404H149.13V22.452ZM152.91 24.454C154.702 24.454 155.99 25.658 155.99 27.366C155.99 29.074 154.702 30.278 152.91 30.278C151.132 30.278 149.83 29.074 149.83 27.366C149.83 25.658 151.132 24.454 152.91 24.454ZM152.91 25.42C151.762 25.42 150.936 26.218 150.936 27.366C150.936 28.5 151.762 29.312 152.91 29.312C154.058 29.312 154.884 28.5 154.884 27.366C154.884 26.218 154.058 25.42 152.91 25.42ZM152.308 20.59H153.47V22.886H152.308V20.59ZM171.291 20.436H172.453V33.092H171.291V20.436ZM167.581 21.794H168.729C168.729 25.462 167.077 28.668 162.849 30.74L162.233 29.802C165.887 28.038 167.581 25.35 167.581 21.99V21.794ZM162.807 21.794H168.085V22.746H162.807V21.794Z" fill="black"/>
</svg>
