<svg width="298" height="54" viewBox="0 0 298 54" fill="none" xmlns="http://www.w3.org/2000/svg">
<rect x="0.5" y="0.5" width="297" height="52.834" rx="17.0069" fill="#9ED2BE" stroke="#A9AFB3"/>
<path d="M127.04 28.024H128.216V30.11H127.04V28.024ZM132.584 20.436H133.746V33.092H132.584V20.436ZM123.666 30.684L123.512 29.718C125.906 29.704 129.056 29.676 131.786 29.326L131.87 30.18C129.056 30.656 126.004 30.684 123.666 30.684ZM123.778 21.976H131.464V22.914H123.778V21.976ZM127.614 23.642C129.434 23.642 130.666 24.566 130.666 25.98C130.666 27.408 129.434 28.318 127.614 28.318C125.808 28.318 124.576 27.408 124.576 25.98C124.576 24.566 125.808 23.642 127.614 23.642ZM127.614 24.538C126.48 24.538 125.682 25.112 125.682 25.98C125.682 26.848 126.48 27.422 127.614 27.422C128.762 27.422 129.56 26.848 129.56 25.98C129.56 25.112 128.762 24.538 127.614 24.538ZM127.04 20.436H128.202V22.494H127.04V20.436ZM139.905 26.806H141.067V29.62H139.905V26.806ZM145.519 20.436H146.681V30.068H145.519V20.436ZM138.043 31.86H146.989V32.812H138.043V31.86ZM138.043 29.13H139.205V32.126H138.043V29.13ZM136.405 27.24L136.251 26.288C138.589 26.288 141.725 26.26 144.413 25.91L144.497 26.764C141.767 27.198 138.701 27.24 136.405 27.24ZM142.943 27.912H145.813V28.766H142.943V27.912ZM140.367 20.954C142.215 20.954 143.475 21.822 143.475 23.152C143.475 24.496 142.215 25.364 140.367 25.364C138.505 25.364 137.245 24.496 137.245 23.152C137.245 21.822 138.505 20.954 140.367 20.954ZM140.367 21.822C139.177 21.822 138.351 22.34 138.351 23.152C138.351 23.964 139.177 24.482 140.367 24.482C141.543 24.482 142.369 23.964 142.369 23.152C142.369 22.34 141.543 21.822 140.367 21.822ZM157.754 20.422H158.93V33.092H157.754V20.422ZM158.608 25.56H160.946V26.526H158.608V25.56ZM154.52 21.794H155.654C155.654 25.392 154.002 28.64 149.914 30.698L149.27 29.802C152.77 28.024 154.52 25.322 154.52 21.976V21.794ZM149.858 21.794H155.122V22.746H149.858V21.794ZM171.277 20.436H172.453V27.226H171.277V20.436ZM164.291 27.856H165.439V29.396H171.305V27.856H172.453V32.924H164.291V27.856ZM165.439 30.32V31.986H171.305V30.32H165.439ZM165.663 21.038C167.581 21.038 168.953 22.228 168.953 23.95C168.953 25.686 167.581 26.876 165.663 26.876C163.745 26.876 162.359 25.686 162.359 23.95C162.359 22.228 163.745 21.038 165.663 21.038ZM165.663 22.004C164.403 22.004 163.493 22.802 163.493 23.95C163.493 25.098 164.403 25.896 165.663 25.896C166.923 25.896 167.833 25.098 167.833 23.95C167.833 22.802 166.923 22.004 165.663 22.004Z" fill="black"/>
</svg>
