<svg width="296" height="43" viewBox="0 0 296 43" fill="none" xmlns="http://www.w3.org/2000/svg">
<rect width="296" height="43" rx="5" fill="#FA7070"/>
<path d="M108.633 13.945H110.538V27.835H108.633V13.945ZM103.128 19.27H106.098V20.845H103.128V19.27ZM105.708 14.245H107.568V27.22H105.708V14.245ZM102.678 15.58H104.598C104.598 19.54 103.413 22.69 99.5133 24.955L98.3883 23.56C101.553 21.655 102.678 19.345 102.678 15.985V15.58ZM99.1683 15.58H103.308V17.17H99.1683V15.58ZM115.757 15.01H117.377V17.035C117.377 20.605 116.147 23.83 113.387 25.105L112.202 23.455C114.617 22.405 115.757 19.735 115.757 17.035V15.01ZM116.147 15.01H117.767V17.035C117.767 19.6 118.862 22.15 121.232 23.17L120.062 24.775C117.377 23.545 116.147 20.455 116.147 17.035V15.01ZM121.892 13.93H123.902V27.865H121.892V13.93ZM131.431 20.62H133.426V22.555H131.431V20.62ZM126.166 19.45H138.721V21.01H126.166V19.45ZM127.711 14.35H137.131V18.715H127.711V14.35ZM135.166 15.895H129.676V17.185H135.166V15.895ZM127.606 21.88H137.206V25.45H129.586V26.68H127.621V24.07H135.241V23.365H127.606V21.88ZM127.621 26.245H137.566V27.745H127.621V26.245ZM143.451 20.29H156.021V21.91H143.451V20.29ZM144.966 17.755H154.596V19.33H144.966V17.755ZM144.966 14.32H154.521V15.91H146.946V18.535H144.966V14.32ZM149.691 22.735C152.691 22.735 154.506 23.65 154.506 25.285C154.506 26.92 152.691 27.835 149.691 27.835C146.691 27.835 144.861 26.92 144.861 25.285C144.861 23.65 146.691 22.735 149.691 22.735ZM149.691 24.235C147.831 24.235 146.886 24.58 146.886 25.285C146.886 26.005 147.831 26.32 149.691 26.32C151.551 26.32 152.496 26.005 152.496 25.285C152.496 24.58 151.551 24.235 149.691 24.235ZM157.235 21.385H169.82V22.975H157.235V21.385ZM158.78 14.215H168.29V17.98H160.775V19.48H158.795V16.57H166.325V15.73H158.78V14.215ZM158.795 18.88H168.56V20.395H158.795V18.88ZM162.53 19.615H164.525V22.255H162.53V19.615ZM158.63 23.755H168.38V27.79H166.385V25.33H158.63V23.755ZM179.944 13.945H181.924V27.835H179.944V13.945ZM181.474 19.36H183.934V21.025H181.474V19.36ZM170.974 16H179.059V17.59H170.974V16ZM175.039 18.37C177.064 18.37 178.564 19.75 178.564 21.685C178.564 23.62 177.064 25 175.039 25C173.014 25 171.514 23.62 171.514 21.685C171.514 19.75 173.014 18.37 175.039 18.37ZM175.039 19.99C174.094 19.99 173.419 20.62 173.419 21.685C173.419 22.75 174.094 23.38 175.039 23.38C175.984 23.38 176.659 22.75 176.659 21.685C176.659 20.62 175.984 19.99 175.039 19.99ZM174.034 14.17H176.029V16.6H174.034V14.17ZM194.403 13.945H196.413V27.835H194.403V13.945ZM190.308 15.385H192.288C192.288 19.63 190.848 23.11 185.913 25.495L184.878 23.905C188.868 21.985 190.308 19.465 190.308 15.745V15.385ZM185.613 15.385H191.253V16.96H185.613V15.385Z" fill="white"/>
</svg>
